<svg enable-background="new 0 0 549.7 146.5" viewBox="0 0 549.7 146.5" xmlns="http://www.w3.org/2000/svg"><g fill="#fff"><path d="m201.6 73.1h-9.4v35.2h-13.2v-35.2h-6.8v-11.3h6.8v-4.4c0-11.4 7.1-17.2 17.9-17.2 1.7 0 3.4.2 5 .6v13.2c-1.4-.6-2.9-.9-4.5-.9-2.6-.2-4.9 1.8-5.2 4.4v.7 3.5h9.4zm19.9 35.2h-13.3v-67.2h13.3z"/><path d="m251.1 58.8c13.9 0 25.3 11.3 25.3 25.2s-11.3 25.3-25.2 25.3-25.3-11.3-25.3-25.2v-.1c-.2-13.7 10.8-25 24.5-25.2zm0 37.6c6.8 0 11.7-5.6 11.7-12.4s-4.9-12.3-11.7-12.3-11.8 5.5-11.8 12.3 5.1 12.4 11.8 12.4z"/><path d="m290.2 59.8 8.6 32.2 8.6-25.6-2.3-6.6h13.1l11.2 32.2 8.4-32.2h13.7l-14.4 48.5h-13.8l-9.6-26.6-9 26.6h-13.9l-14.3-48.5z"/><path d="m73.2 0c-40.4 0-73.2 32.8-73.2 73.2s32.8 73.2 73.2 73.2 73.2-32.8 73.2-73.2c.1-40.4-32.7-73.2-73.2-73.2zm32.2 82.5h-20.7v7.8c0 15.7-12.7 28.4-28.4 28.4s-28.4-12.7-28.4-28.4 12.7-28.4 28.4-28.4h7.7v20.7h20.7v-20.8h20.7zm10.3-31.1h-23.3c-4.3 0-7.7 3.5-7.8 7.8v2.6h-20.6v-2.6c0-15.7 12.7-28.4 28.4-28.4h23.3z"/><path d="m56.2 82.5c-4.3 0-7.8 3.5-7.8 7.8s3.5 7.8 7.8 7.8 7.8-3.5 7.8-7.8v-7.8h-7.8c0-.1 0-.1 0 0z"/><path d="m64 82.4h20.7v-20.6h-20.7z"/><path d="m360.5 91.2c5-.1 9.1 3.8 9.2 8.8v.4c.1 4.9-3.8 8.9-8.7 9-.2 0-.3 0-.5 0-4.8.1-8.9-3.7-9-8.5 0-.2 0-.3 0-.5-.2-4.9 3.6-9 8.5-9.2z"/><path d="m412.6 107.1c-3.4 1.5-7.1 2.3-10.8 2.3-15.5 0-25.8-11.2-25.8-25.5s10.3-25.4 25.8-25.4c3.7 0 7.4.8 10.8 2.3v14.2c-3.2-2.2-6.9-3.3-10.8-3.3-6.8.2-12.2 5.9-12 12.7.2 6.6 5.5 11.9 12 12 3.9 0 7.6-1.2 10.8-3.5z"/><path d="m444.1 58.6c14 0 25.4 11.3 25.5 25.4s-11.3 25.4-25.4 25.5-25.4-11.3-25.5-25.4v-.1c-.2-13.8 10.8-25.2 24.6-25.4zm0 37.8c6.9 0 11.8-5.7 11.8-12.4s-4.9-12.3-11.8-12.3-11.8 5.6-11.8 12.3 5 12.4 11.8 12.4z"/><path d="m491.1 65.4c2.7-4.3 7.4-6.9 12.4-6.8 6.9 0 12.3 3.1 15 8.8 2.3-5 7.1-8.8 14.4-8.8 9.4 0 16.8 7.5 16.8 17.9v31.8h-13.3v-28c0-5.5-3.1-8.7-7.8-8.7s-8.1 3.2-8.1 8.7v28h-13.3v-28c0-5.5-3.1-8.7-7.8-8.7s-7.8 2.9-8.1 8v28.7h-13.3v-48.7h13.3v5.8z"/></g></svg>