<svg width="37" height="50" viewBox="0 0 37 50" fill="none" xmlns="http://www.w3.org/2000/svg">
<g id="image" clip-path="url(#clip0_44_2273)">
<path id="Vector" d="M22.3353 5.50985L15.5277 30.2519C15.2143 31.3908 13.4908 31.1701 13.4908 29.9911V4.37767C13.4908 1.95995 15.5049 0 17.9895 0C20.9472 0 23.1002 2.72969 22.3353 5.50985Z" fill="#0066FF"/>
<path id="Vector_2" d="M34.6385 18.1431L18.6786 33.0284C17.8451 33.8057 16.5638 32.8096 17.1302 31.8243L27.9729 12.9608C29.269 10.7058 32.2834 10.112 34.345 11.7057C36.4143 13.3051 36.5534 16.357 34.6385 18.1431Z" fill="#0066FF"/>
<path id="Vector_3" d="M32.6173 37H20.5059C19.436 37 19.0955 35.5112 20.0525 35.0174L30.8852 29.4272C33.4604 28.0982 36.4904 30.0309 36.4904 33.0026C36.4904 35.2103 34.7564 37 32.6173 37Z" fill="#0066FF"/>
<path id="Vector_4" fill-rule="evenodd" clip-rule="evenodd" d="M3.99023 0C5.92323 -8.44935e-08 7.49023 1.567 7.49023 3.5V46.5C7.49023 48.4329 5.92323 50 3.99023 50C2.05724 50 0.490236 48.4329 0.490236 46.5L0.490234 3.5C0.490234 1.567 2.05723 8.44941e-08 3.99023 0Z" fill="#0066FF"/>
<path id="Vector_5" fill-rule="evenodd" clip-rule="evenodd" d="M36.4905 46.5C36.4905 48.4329 34.9234 50 32.9905 50H3.99048C2.05749 50 0.490479 48.4329 0.490479 46.5C0.490479 44.5671 2.05749 43 3.99048 43H32.9905C34.9234 43 36.4905 44.5671 36.4905 46.5Z" fill="#0066FF"/>
</g>
<defs>
<clipPath id="clip0_44_2273">
<rect width="36.019" height="50" fill="white" transform="translate(0.490479)"/>
</clipPath>
</defs>
</svg>
