<svg width="43" height="32" viewBox="0 0 43 32" fill="none" xmlns="http://www.w3.org/2000/svg">
<g id="image" clip-path="url(#clip0_44_2224)">
<path id="Vector" d="M33.1944 4.90892H41.9468V8.28973C41.9468 12.8741 38.242 16.5795 33.6571 16.5795H33.1938L33.1944 4.90892ZM20.7372 0H33.1944V31.9071H31.7127C22.6822 31.9071 20.8765 25.6088 20.8765 20.0055L20.7372 0ZM0.5 7.22433C0.5 12.9205 4.57522 15.0043 9.11369 15.6993H0.5V32H8.78973C17.1252 32 18.0978 28.2952 18.0978 24.7757C18.0978 20.4688 15.1338 17.459 10.5495 16.3007H18.0978V0H9.80807C1.47255 0 0.5 3.70477 0.5 7.22433Z" fill="white"/>
</g>
<defs>
<clipPath id="clip0_44_2224">
<rect width="42" height="32" fill="white" transform="translate(0.5)"/>
</clipPath>
</defs>
</svg>
