<svg width="101" height="20" viewBox="0 0 101 20" fill="none" xmlns="http://www.w3.org/2000/svg">
<g id="image" clip-path="url(#clip0_44_2250)">
<path id="Vector" d="M12.8649 10.6246C12.8649 13.1486 12.0184 15.266 10.3254 16.9718C8.6324 18.6827 6.56968 19.5356 4.13721 19.5356H0.5177V15.8759H4.13721C5.57724 15.8759 6.78859 15.3751 7.77131 14.3685C8.75403 13.3668 9.24537 12.1171 9.24537 10.6295L9.21621 0.434082H12.8649V10.6246Z" fill="white"/>
<path id="Vector_2" d="M15.4676 0.60791H19.0871L19.0287 4.20805H15.4384L15.4676 0.60791ZM15.4676 5.66595H19.0871V19.5309H15.4384L15.4676 5.66595Z" fill="white"/>
<path id="Vector_3" d="M25.4025 4.38602H31.6198V8.07543H25.3441V13.183C25.3441 13.9418 25.5776 14.5765 26.0495 15.0922C26.5214 15.6079 27.11 15.8708 27.8155 15.8708H31.5858V19.5304H27.8495C26.137 19.5304 24.6922 18.9105 23.5149 17.6659C22.3376 16.4212 21.7489 14.9088 21.7489 13.1186V0.483398H25.3392L25.3976 4.38105L25.4025 4.38602Z" fill="white"/>
<path id="Vector_4" d="M45.8455 17.3585C44.4055 18.8115 42.6443 19.5355 40.5621 19.5355C38.48 19.5355 36.6946 18.8065 35.2642 17.3436C33.834 15.8808 33.1188 14.0906 33.1188 11.9633C33.1188 9.83594 33.8388 8.04081 35.2788 6.56802C36.7189 5.09524 38.48 4.36133 40.5621 4.36133C42.6443 4.36133 44.4055 5.09524 45.8455 6.56802C47.2855 8.04081 48.0055 9.83594 48.0055 11.9633C48.0055 14.0906 47.2855 15.9105 45.8455 17.3585ZM43.233 9.14171C42.5227 8.41273 41.6324 8.05073 40.5621 8.05073C39.4919 8.05073 38.587 8.42757 37.8476 9.18632C37.108 9.94499 36.7383 10.8674 36.7383 11.9633C36.7383 13.0592 37.108 13.9864 37.8476 14.7402C38.587 15.4989 39.4919 15.8758 40.5621 15.8758C41.6324 15.8758 42.5616 15.5039 43.2914 14.7551C44.0211 14.0064 44.386 13.079 44.386 11.9633L44.2985 11.8145C44.2985 10.7583 43.9433 9.87062 43.233 9.14171Z" fill="white"/>
<path id="Vector_5" d="M61.0293 17.942C61.1506 17.942 61.246 17.9773 61.3153 18.048C61.3846 18.1187 61.4193 18.2159 61.4193 18.3395V19.108C61.4193 19.2317 61.3846 19.3289 61.3153 19.3995C61.246 19.4702 61.1506 19.5056 61.0293 19.5056H52.7357C52.6144 19.5056 52.519 19.4702 52.4498 19.3995C52.3804 19.3289 52.3457 19.2317 52.3457 19.108V1.35259C52.3457 1.22891 52.3804 1.13175 52.4498 1.06108C52.519 0.990406 52.6144 0.955078 52.7357 0.955078H53.5937C53.715 0.955078 53.8103 0.990406 53.8796 1.06108C53.949 1.13175 53.9837 1.22891 53.9837 1.35259V17.942H61.0293Z" fill="white"/>
<path id="Vector_6" d="M74.7992 6.52038C74.9205 6.52038 75.0159 6.55571 75.0853 6.62638C75.1545 6.69705 75.1892 6.79422 75.1892 6.91789V19.1082C75.1892 19.2319 75.1545 19.329 75.0853 19.3997C75.0159 19.4704 74.9205 19.5057 74.7992 19.5057H74.0973C73.872 19.5057 73.7419 19.3732 73.7073 19.1082L73.5773 17.3856C73.0747 18.1454 72.4247 18.746 71.6274 19.1877C70.8301 19.6117 69.9288 19.8237 68.9235 19.8237C67.7276 19.8237 66.653 19.5234 65.6997 18.9227C64.7464 18.322 64.0011 17.5093 63.4638 16.4847C62.9265 15.4423 62.6578 14.2939 62.6578 13.0395C62.6578 11.7852 62.9265 10.6457 63.4638 9.62096C64.0011 8.5786 64.7464 7.75707 65.6997 7.15639C66.653 6.55571 67.7276 6.25537 68.9235 6.25537C69.9462 6.25537 70.8561 6.47621 71.6534 6.91789C72.4507 7.3419 73.1007 7.94261 73.6033 8.71992L73.7073 6.91789C73.7419 6.65288 73.872 6.52038 74.0973 6.52038H74.7992ZM69.0275 18.3662C70.2061 18.3662 71.2287 17.9687 72.0954 17.1737C72.962 16.3786 73.508 15.3716 73.7333 14.1525L73.7853 13.0395L73.7333 11.9C73.508 10.681 72.962 9.67397 72.0954 8.87895C71.2287 8.08393 70.2061 7.68641 69.0275 7.68641C68.1089 7.68641 67.277 7.91611 66.5316 8.37542C65.7863 8.8348 65.2057 9.47079 64.7897 10.2835C64.3737 11.0962 64.1658 12.006 64.1658 13.013C64.1658 14.0201 64.3737 14.9388 64.7897 15.7691C65.2057 16.5818 65.7863 17.2178 66.5316 17.6772C67.277 18.1365 68.1089 18.3662 69.0275 18.3662Z" fill="white"/>
<path id="Vector_7" d="M83.9071 6.25531C85.1029 6.25531 86.1775 6.55565 87.1309 7.15633C88.0836 7.75701 88.8296 8.57854 89.3665 9.6209C89.9042 10.6456 90.1723 11.7851 90.1723 13.0395C90.1723 14.2939 89.9042 15.4422 89.3665 16.4846C88.8296 17.5092 88.0836 18.322 87.1309 18.9226C86.1775 19.5233 85.1029 19.8237 83.9071 19.8237C82.9014 19.8237 82.0002 19.6117 81.2027 19.1877C80.406 18.7459 79.7555 18.1453 79.2534 17.3856L79.1232 19.1081C79.0883 19.3731 78.9581 19.5057 78.7332 19.5057H78.0311C77.91 19.5057 77.8145 19.4703 77.7449 19.3996C77.676 19.329 77.6411 19.2318 77.6411 19.1081V0.557666C77.6411 0.433996 77.676 0.336827 77.7449 0.266159C77.8145 0.195491 77.91 0.160156 78.0311 0.160156H78.8112C78.9323 0.160156 79.0277 0.195491 79.0974 0.266159C79.1663 0.336827 79.2012 0.433996 79.2012 0.557666V8.37535L79.2269 8.71985C79.7298 7.94255 80.3795 7.34184 81.177 6.91782C81.9744 6.47615 82.884 6.25531 83.9071 6.25531ZM83.8026 18.3661C84.7212 18.3661 85.5535 18.1364 86.2987 17.6771C87.0438 17.2178 87.6247 16.5818 88.0405 15.769C88.457 14.9387 88.6645 14.02 88.6645 13.013C88.6645 12.006 88.457 11.0961 88.0405 10.2834C87.6247 9.47072 87.0438 8.83474 86.2987 8.37535C85.5535 7.91605 84.7212 7.68635 83.8026 7.68635C82.6242 7.68635 81.6018 8.08387 80.7347 8.87889C79.8684 9.67391 79.3223 10.6809 79.0974 11.8999L79.0452 13.0395L79.0974 14.1525C79.3223 15.3715 79.8684 16.3786 80.7347 17.1736C81.6018 17.9686 82.6242 18.3661 83.8026 18.3661Z" fill="white"/>
<path id="Vector_8" d="M93.2546 9.6741C93.2546 10.3101 93.5061 10.8048 94.0089 11.1581C94.5284 11.5115 95.3175 11.8825 96.3747 12.2711C97.2759 12.6069 97.9954 12.916 98.5323 13.1987C99.07 13.4814 99.5289 13.8788 99.9106 14.3912C100.292 14.8859 100.482 15.5219 100.482 16.2993C100.482 16.9883 100.283 17.6066 99.8841 18.1543C99.4858 18.6843 98.9572 19.0995 98.2983 19.3998C97.6402 19.7002 96.9465 19.8503 96.2187 19.8503C95.2479 19.8503 94.3467 19.6384 93.5144 19.2144C92.6829 18.7903 92.0157 18.278 91.5128 17.6773C91.4265 17.5537 91.3826 17.4653 91.3826 17.4123C91.3826 17.3593 91.4174 17.2798 91.4871 17.1738L91.9551 16.6438C92.0414 16.5377 92.1111 16.4848 92.1626 16.4848C92.2323 16.4848 92.336 16.5555 92.4746 16.6968C92.8563 17.1208 93.3758 17.5183 94.0347 17.8893C94.6935 18.2427 95.413 18.4193 96.1922 18.4193C97.0419 18.4193 97.7182 18.2338 98.2203 17.8628C98.7232 17.4741 98.9746 16.953 98.9746 16.2993C98.9746 15.8046 98.8269 15.3894 98.5323 15.0537C98.2377 14.7004 97.8742 14.4177 97.4403 14.2057C97.0071 13.9937 96.4262 13.7464 95.6985 13.4637C94.8495 13.1457 94.1558 12.8542 93.6189 12.5891C93.0986 12.3065 92.6571 11.9355 92.2928 11.4761C91.9286 10.9991 91.7468 10.3985 91.7468 9.6741C91.7468 9.02039 91.9203 8.43742 92.2671 7.92502C92.6306 7.39503 93.116 6.97986 93.7226 6.67951C94.3467 6.37917 95.0313 6.229 95.7765 6.229C96.4527 6.229 97.1548 6.40568 97.8825 6.75901C98.6277 7.09469 99.2601 7.5717 99.7804 8.19008C99.85 8.26074 99.8841 8.34026 99.8841 8.42856C99.8841 8.51686 99.8409 8.62288 99.7546 8.74655L99.4683 9.11756C99.3994 9.22358 99.3123 9.27659 99.2086 9.27659C99.1215 9.27659 99.0177 9.21472 98.8966 9.09105C98.3589 8.57873 97.8477 8.20773 97.3623 7.97804C96.8776 7.74834 96.3225 7.63354 95.6985 7.63354C95.0919 7.63354 94.5284 7.80136 94.0089 8.13707C93.5061 8.45506 93.2546 8.96738 93.2546 9.6741Z" fill="white"/>
</g>
<defs>
<clipPath id="clip0_44_2250">
<rect width="99.9646" height="19.69" fill="white" transform="translate(0.5177 0.160156)"/>
</clipPath>
</defs>
</svg>
