<svg width="31" height="32" viewBox="0 0 31 32" fill="none" xmlns="http://www.w3.org/2000/svg">
<g id="image" clip-path="url(#clip0_44_2260)">
<path id="Vector" d="M30.5 16C30.5 7.71573 23.7843 1 15.5 1C7.21573 1 0.5 7.71573 0.5 16C0.5 24.2843 7.21573 31 15.5 31C23.7843 31 30.5 24.2843 30.5 16Z" fill="#1A3EFF"/>
<path id="Vector_2" d="M16.9463 18.4793H12.9883C11.2656 18.4793 10.2522 19.1145 9.41689 19.9498C8.63982 20.7269 8.36423 21.6623 8.27209 22.3346C8.2029 22.8394 8.62591 23.2272 9.13546 23.2272H17.5321C17.7973 23.2272 18.0517 23.1218 18.2392 22.9343L22.0291 19.1443C22.4196 18.7538 22.4196 18.1207 22.0291 17.7301L19.6534 15.3544C19.0235 14.7245 17.9463 15.1706 17.9463 16.0615V17.4793C17.9463 18.0315 17.4986 18.4793 16.9463 18.4793Z" fill="white"/>
<path id="Vector_3" d="M14.0185 13.5633H17.9765C19.6992 13.5633 20.7126 12.9281 21.5479 12.0927C22.325 11.3157 22.6006 10.3802 22.6927 9.70802C22.7619 9.20319 22.3389 8.81543 21.8294 8.81543H13.4327C13.1675 8.81543 12.9132 8.92079 12.7256 9.10832L8.93571 12.8982C8.54519 13.2888 8.54519 13.9219 8.93571 14.3125L11.3114 16.6882C11.9414 17.3181 13.0185 16.872 13.0185 15.981V14.5633C13.0185 14.011 13.4662 13.5633 14.0185 13.5633Z" fill="white"/>
</g>
<defs>
<clipPath id="clip0_44_2260">
<rect width="30" height="32" fill="white" transform="translate(0.5)"/>
</clipPath>
</defs>
</svg>
