<svg width="101" height="17" viewBox="0 0 101 17" fill="none" xmlns="http://www.w3.org/2000/svg">
<g id="image" clip-path="url(#clip0_44_2227)">
<g id="Group" filter="url(#filter0_i_44_2227)">
<path id="Vector" d="M25.7534 13.027V8.65373C25.7534 8.08538 25.5744 7.617 25.2165 7.2486C24.8588 6.88022 24.3955 6.69603 23.8273 6.69603C23.4482 6.69603 23.1115 6.78024 22.8168 6.94864C22.5221 7.11704 22.2905 7.3486 22.1221 7.6433C21.9537 7.93801 21.8695 8.27481 21.8695 8.65373L21.2854 8.32218C21.2854 7.75382 21.4117 7.2486 21.6643 6.80655C21.9169 6.36448 22.2695 6.01716 22.7221 5.76454C23.1746 5.50141 23.6852 5.36984 24.2534 5.36984C24.8219 5.36984 25.3219 5.49614 25.7534 5.74875C26.1955 6.00137 26.5428 6.35396 26.7953 6.80655C27.048 7.25914 27.1744 7.78013 27.1744 8.36954V13.027H25.7534ZM20.4486 13.027V1.75439H21.8695V13.027H20.4486Z" fill="white"/>
<path id="Vector_2" d="M31.5611 13.0903L28.3086 5.52783H29.8874L32.303 11.4483H31.7978L34.3397 5.52783H35.9185L32.4135 13.0903H31.5611ZM29.4138 16.1689L31.6241 11.6378L32.4135 13.0903L30.9926 16.1689H29.4138Z" fill="white"/>
<path id="Vector_3" d="M40.9699 13.1847C40.4017 13.1847 39.8859 13.0689 39.4226 12.8373C38.9701 12.5953 38.6071 12.2637 38.3334 11.8427C38.0598 11.4217 37.9071 10.9428 37.8755 10.406V8.14832C37.9071 7.601 38.0598 7.12211 38.3334 6.71161C38.6174 6.2906 38.9859 5.96431 39.4386 5.73276C39.9017 5.49067 40.412 5.36963 40.9699 5.36963C41.6541 5.36963 42.2699 5.5433 42.8172 5.89064C43.3749 6.23796 43.8118 6.70634 44.1276 7.29576C44.4433 7.88519 44.6012 8.54828 44.6012 9.28506C44.6012 10.0218 44.4433 10.6849 44.1276 11.2743C43.8118 11.8638 43.3749 12.3321 42.8172 12.6794C42.2699 13.0163 41.6541 13.1847 40.9699 13.1847ZM40.7332 11.8427C41.2068 11.8427 41.6226 11.7322 41.9803 11.5112C42.3381 11.2901 42.6224 10.9901 42.833 10.6112C43.0433 10.2218 43.1487 9.77447 43.1487 9.26927C43.1487 8.77456 43.0433 8.33251 42.833 7.94308C42.6224 7.55364 42.3381 7.25366 41.9803 7.04316C41.6226 6.82213 41.212 6.71161 40.749 6.71161C40.2753 6.71161 39.8595 6.82213 39.5017 7.04316C39.1438 7.25366 38.8649 7.55364 38.6649 7.94308C38.4649 8.33251 38.3649 8.77983 38.3649 9.28506C38.3649 9.77974 38.4595 10.2218 38.6492 10.6112C38.8492 10.9901 39.128 11.2901 39.4859 11.5112C39.8541 11.7322 40.2699 11.8427 40.7332 11.8427ZM37.0228 16.1686V5.52751H38.4438V7.501L38.1755 9.31663L38.4438 11.148V16.1686H37.0228Z" fill="white"/>
<path id="Vector_4" d="M49.6854 13.1847C48.9381 13.1847 48.2644 13.0163 47.6644 12.6794C47.0644 12.3321 46.5908 11.8638 46.2435 11.2743C45.8962 10.6849 45.7225 10.0166 45.7225 9.26927C45.7225 8.53249 45.891 7.8694 46.2277 7.27997C46.575 6.69055 47.0383 6.22744 47.6171 5.89064C48.2065 5.5433 48.8644 5.36963 49.5906 5.36963C50.2851 5.36963 50.8957 5.52751 51.4221 5.84328C51.9588 6.15902 52.3746 6.59582 52.6692 7.15368C52.9746 7.71152 53.127 8.34303 53.127 9.04823C53.127 9.15348 53.1219 9.26927 53.1113 9.39555C53.1007 9.51134 53.0797 9.64817 53.0482 9.80605H46.7171V8.62195H52.2903L51.7694 9.07981C51.7694 8.57458 51.68 8.14832 51.5009 7.80098C51.3221 7.44312 51.0694 7.16945 50.743 6.98001C50.4169 6.78003 50.0221 6.68003 49.559 6.68003C49.0748 6.68003 48.6487 6.78528 48.2802 6.9958C47.9117 7.2063 47.6277 7.501 47.4277 7.87992C47.2277 8.25882 47.1277 8.70616 47.1277 9.2219C47.1277 9.74816 47.2329 10.2113 47.4435 10.6112C47.6538 11.0007 47.9538 11.3059 48.3433 11.5269C48.7327 11.7374 49.1802 11.8427 49.6854 11.8427C50.1063 11.8427 50.4906 11.769 50.8379 11.6217C51.1957 11.4743 51.5009 11.2533 51.7536 10.9586L52.6692 11.8901C52.3113 12.3111 51.8694 12.6321 51.343 12.8531C50.8273 13.0742 50.2748 13.1847 49.6854 13.1847Z" fill="white"/>
<path id="Vector_5" d="M54.6764 13.0268V5.52751H56.0973V13.0268H54.6764ZM56.0973 8.74826L55.5606 8.51143C55.5606 7.55364 55.7816 6.79055 56.2237 6.22217C56.6658 5.65382 57.3025 5.36963 58.1341 5.36963C58.5129 5.36963 58.855 5.43805 59.1602 5.57488C59.4654 5.70118 59.7496 5.91695 60.0127 6.22217L59.0813 7.18524C58.9235 7.01684 58.7498 6.8958 58.5602 6.82213C58.3708 6.74846 58.1498 6.71161 57.8971 6.71161C57.371 6.71161 56.9395 6.88001 56.6025 7.21681C56.2658 7.55364 56.0973 8.06411 56.0973 8.74826Z" fill="white"/>
<path id="Vector_6" d="M63.2275 13.1847C62.8066 13.1847 62.4066 13.132 62.0277 13.0268C61.6593 12.911 61.3171 12.7531 61.0014 12.5532C60.6856 12.3426 60.412 12.0953 60.1804 11.8111L61.0962 10.8954C61.3698 11.2322 61.6856 11.4848 62.0435 11.6532C62.4014 11.8111 62.8014 11.8901 63.2433 11.8901C63.6854 11.8901 64.0275 11.8164 64.2696 11.669C64.5117 11.5112 64.6327 11.2954 64.6327 11.0217C64.6327 10.7481 64.5327 10.5376 64.3327 10.3902C64.1433 10.2323 63.896 10.106 63.5908 10.0113C63.2854 9.90605 62.9593 9.80605 62.6117 9.71132C62.275 9.60607 61.9541 9.47449 61.6487 9.31663C61.3435 9.15875 61.091 8.94298 60.891 8.66931C60.7016 8.39566 60.6068 8.03253 60.6068 7.57994C60.6068 7.12735 60.7174 6.73792 60.9383 6.41163C61.1593 6.07483 61.4647 5.81695 61.8541 5.63803C62.2541 5.45909 62.7329 5.36963 63.2908 5.36963C63.8802 5.36963 64.4011 5.47488 64.8536 5.68539C65.3169 5.88537 65.6957 6.1906 65.9906 6.60109L65.0748 7.51679C64.8642 7.24314 64.6011 7.03262 64.2854 6.88528C63.9802 6.73792 63.6327 6.66425 63.2433 6.66425C62.8329 6.66425 62.5171 6.73792 62.296 6.88528C62.0856 7.02211 61.9804 7.21681 61.9804 7.46943C61.9804 7.72204 62.075 7.91675 62.2644 8.05359C62.4538 8.19042 62.7014 8.30618 63.0065 8.40091C63.3223 8.49564 63.6487 8.59564 63.9854 8.70089C64.3221 8.79562 64.6433 8.9272 64.9484 9.0956C65.2536 9.264 65.5009 9.49028 65.6906 9.77447C65.8906 10.0587 65.9906 10.4323 65.9906 10.8954C65.9906 11.6006 65.7379 12.1585 65.2327 12.569C64.7379 12.9794 64.0696 13.1847 63.2275 13.1847Z" fill="white"/>
<path id="Vector_7" d="M71.5281 13.1847C70.9599 13.1847 70.4441 13.0689 69.9811 12.8373C69.5284 12.5953 69.1653 12.2637 68.8917 11.8427C68.618 11.4217 68.4653 10.9428 68.4338 10.406V8.14832C68.4653 7.601 68.618 7.12211 68.8917 6.71161C69.1757 6.2906 69.5441 5.96431 69.9968 5.73276C70.4599 5.49067 70.9703 5.36963 71.5281 5.36963C72.2124 5.36963 72.8281 5.5433 73.3754 5.89064C73.9333 6.23796 74.37 6.70634 74.6858 7.29576C75.0016 7.88519 75.1595 8.54828 75.1595 9.28506C75.1595 10.0218 75.0016 10.6849 74.6858 11.2743C74.37 11.8638 73.9333 12.3321 73.3754 12.6794C72.8281 13.0163 72.2124 13.1847 71.5281 13.1847ZM71.2914 11.8427C71.7651 11.8427 72.1809 11.7322 72.5385 11.5112C72.8964 11.2901 73.1806 10.9901 73.3912 10.6112C73.6016 10.2218 73.707 9.77447 73.707 9.26927C73.707 8.77456 73.6016 8.33251 73.3912 7.94308C73.1806 7.55364 72.8964 7.25366 72.5385 7.04316C72.1809 6.82213 71.7703 6.71161 71.3072 6.71161C70.8336 6.71161 70.4178 6.82213 70.0599 7.04316C69.702 7.25366 69.4232 7.55364 69.2232 7.94308C69.0232 8.33251 68.9232 8.77983 68.9232 9.28506C68.9232 9.77974 69.0178 10.2218 69.2074 10.6112C69.4074 10.9901 69.6863 11.2901 70.0441 11.5112C70.4126 11.7322 70.8281 11.8427 71.2914 11.8427ZM67.5813 16.1686V5.52751H69.002V7.501L68.7338 9.31663L69.002 11.148V16.1686H67.5813Z" fill="white"/>
<path id="Vector_8" d="M79.9595 13.1847C79.2752 13.1847 78.6543 13.0163 78.0964 12.6794C77.5388 12.3321 77.0966 11.8638 76.7703 11.2743C76.4545 10.6849 76.2966 10.0218 76.2966 9.28506C76.2966 8.54828 76.4545 7.88519 76.7703 7.29576C77.0966 6.70634 77.5333 6.23796 78.0806 5.89064C78.6385 5.5433 79.2649 5.36963 79.9595 5.36963C80.5279 5.36963 81.0331 5.49067 81.475 5.73276C81.9277 5.96431 82.2908 6.2906 82.5644 6.71161C82.8381 7.12211 82.9908 7.601 83.0223 8.14832V10.406C82.9908 10.9428 82.8381 11.4217 82.5644 11.8427C82.3014 12.2637 81.9435 12.5953 81.491 12.8373C81.0489 13.0689 80.5383 13.1847 79.9595 13.1847ZM80.1962 11.8427C80.9016 11.8427 81.4698 11.6059 81.9014 11.1322C82.3329 10.6481 82.5487 10.0324 82.5487 9.28506C82.5487 8.76931 82.4487 8.32197 82.2487 7.94308C82.0592 7.55364 81.7856 7.25366 81.4277 7.04316C81.0698 6.82213 80.6541 6.71161 80.1804 6.71161C79.7068 6.71161 79.2858 6.82213 78.9176 7.04316C78.5597 7.26418 78.2755 7.56943 78.0649 7.95886C77.8649 8.33776 77.7649 8.77456 77.7649 9.26927C77.7649 9.77447 77.8649 10.2218 78.0649 10.6112C78.2755 10.9901 78.5649 11.2901 78.9333 11.5112C79.3016 11.7322 79.7228 11.8427 80.1962 11.8427ZM82.4541 13.0268V11.0059L82.7223 9.17454L82.4541 7.35891V5.52751H83.8908V13.0268H82.4541Z" fill="white"/>
<path id="Vector_9" d="M89.3854 13.1847C88.6487 13.1847 87.9802 13.011 87.3805 12.6637C86.7908 12.3163 86.3226 11.848 85.9753 11.2585C85.6383 10.6586 85.4701 9.99551 85.4701 9.26927C85.4701 8.53249 85.6383 7.8694 85.9753 7.27997C86.3226 6.69055 86.7908 6.22744 87.3805 5.89064C87.9802 5.5433 88.6487 5.36963 89.3854 5.36963C89.9642 5.36963 90.5012 5.48015 90.9958 5.70118C91.4906 5.91168 91.9167 6.22217 92.2746 6.63267L91.3273 7.57994C91.0958 7.3063 90.8115 7.10105 90.4748 6.96422C90.1485 6.81686 89.7854 6.74319 89.3854 6.74319C88.9118 6.74319 88.4908 6.85371 88.1223 7.07474C87.7541 7.28524 87.4645 7.57994 87.2541 7.95886C87.0435 8.33776 86.9383 8.77456 86.9383 9.26927C86.9383 9.76395 87.0435 10.2008 87.2541 10.5797C87.4645 10.9586 87.7541 11.2585 88.1223 11.4796C88.4908 11.7006 88.9118 11.8111 89.3854 11.8111C89.7854 11.8111 90.1485 11.7427 90.4748 11.6059C90.8115 11.4585 91.1009 11.248 91.3431 10.9744L92.2746 11.9216C91.9273 12.3216 91.5009 12.6321 90.9958 12.8531C90.5012 13.0742 89.9642 13.1847 89.3854 13.1847Z" fill="white"/>
<path id="Vector_10" d="M97.0185 13.1847C96.2712 13.1847 95.5976 13.0163 94.9976 12.6794C94.3976 12.3321 93.9239 11.8638 93.5766 11.2743C93.2293 10.6849 93.0557 10.0166 93.0557 9.26927C93.0557 8.53249 93.2239 7.8694 93.5608 7.27997C93.9081 6.69055 94.3712 6.22744 94.9503 5.89064C95.5397 5.5433 96.1973 5.36963 96.9237 5.36963C97.6183 5.36963 98.2289 5.52751 98.755 5.84328C99.2919 6.15902 99.7077 6.59582 100.002 7.15368C100.307 7.71152 100.46 8.34303 100.46 9.04823C100.46 9.15348 100.455 9.26927 100.444 9.39555C100.434 9.51134 100.413 9.64817 100.381 9.80605H94.0503V8.62195H99.6235L99.1025 9.07981C99.1025 8.57458 99.0129 8.14832 98.834 7.80098C98.655 7.44312 98.4025 7.16945 98.0762 6.98001C97.7498 6.78003 97.3552 6.68003 96.8921 6.68003C96.4079 6.68003 95.9816 6.78528 95.6133 6.9958C95.2449 7.2063 94.9606 7.501 94.7606 7.87992C94.5606 8.25882 94.4608 8.70616 94.4608 9.2219C94.4608 9.74816 94.566 10.2113 94.7766 10.6112C94.987 11.0007 95.287 11.3059 95.6764 11.5269C96.0658 11.7374 96.5131 11.8427 97.0185 11.8427C97.4394 11.8427 97.8237 11.769 98.171 11.6217C98.5289 11.4743 98.834 11.2533 99.0865 10.9586L100.002 11.8901C99.6444 12.3111 99.2023 12.6321 98.6762 12.8531C98.1604 13.0742 97.6079 13.1847 97.0185 13.1847Z" fill="white"/>
</g>
<path id="Vector_11" d="M8.08812 0.287109H4.35922L1.54773 6.29296C0.785839 7.9205 0.404893 8.73426 0.520315 9.35591C0.621843 9.90271 0.984179 10.3473 1.55539 10.6259C2.20477 10.9426 3.24897 10.9426 5.33735 10.9426H8.07188L9.25089 8.42406C9.31438 8.28843 9.34614 8.22062 9.33652 8.16881C9.32805 8.12325 9.29785 8.0862 9.25026 8.06298C9.19614 8.03658 9.10913 8.03658 8.9351 8.03658H6.44915C5.75303 8.03658 5.40496 8.03658 5.1885 7.931C4.9981 7.83814 4.87731 7.68994 4.84348 7.50767C4.80501 7.30046 4.93199 7.0292 5.18596 6.4867L8.08812 0.287109Z" fill="white"/>
<path id="Vector_12" d="M6.98713 15.0403H10.716L13.5275 9.03445C14.2894 7.4069 14.6704 6.59314 14.5549 5.9715C14.4534 5.4247 14.0911 4.98013 13.5199 4.7015C12.8705 4.38477 11.8263 4.38477 9.73792 4.38477H7.00337L5.82436 6.90335C5.76087 7.03898 5.72914 7.10679 5.73875 7.15859C5.7472 7.20416 5.7774 7.24121 5.82502 7.26443C5.87911 7.29082 5.96614 7.29082 6.14017 7.29082H8.62612C9.32224 7.29082 9.67031 7.29082 9.88675 7.39639C10.0772 7.48927 10.1979 7.63745 10.2318 7.81972C10.2703 8.02693 10.1433 8.29819 9.88932 8.84071L6.98713 15.0403Z" fill="white"/>
</g>
<defs>
<filter id="filter0_i_44_2227" x="20.4486" y="1.75439" width="80.0116" height="14.4146" filterUnits="userSpaceOnUse" color-interpolation-filters="sRGB">
<feFlood flood-opacity="0" result="BackgroundImageFix"/>
<feBlend mode="normal" in="SourceGraphic" in2="BackgroundImageFix" result="shape"/>
<feColorMatrix in="SourceAlpha" type="matrix" values="0 0 0 0 0 0 0 0 0 0 0 0 0 0 0 0 0 0 127 0" result="hardAlpha"/>
<feOffset/>
<feGaussianBlur stdDeviation="0.0144144"/>
<feComposite in2="hardAlpha" operator="arithmetic" k2="-1" k3="1"/>
<feColorMatrix type="matrix" values="0 0 0 0 1 0 0 0 0 1 0 0 0 0 1 0 0 0 1 0"/>
<feBlend mode="normal" in2="shape" result="effect1_innerShadow_44_2227"/>
</filter>
<clipPath id="clip0_44_2227">
<rect width="100" height="15.991" fill="white" transform="translate(0.5 0.287109)"/>
</clipPath>
</defs>
</svg>
