<svg width="101" height="26" viewBox="0 0 101 26" fill="none" xmlns="http://www.w3.org/2000/svg">
<g id="image">
<g id="logasy">
<path id="Vector" d="M32.0684 12.1379V17.2904H29.988V9.86862C29.988 9.07518 30.4133 8.58008 31.075 8.58008C31.3924 8.58008 31.6193 8.6864 31.9145 8.95934L37.1147 13.7454V8.59277H39.1935V16.1209C39.1935 16.9143 38.7571 17.4095 38.1065 17.4095C37.9478 17.4097 37.791 17.376 37.6465 17.3106C37.5019 17.2452 37.3731 17.1496 37.2686 17.0302L32.0684 12.1379Z" fill="white"/>
<path id="Vector_2" d="M44.9777 17.2906C42.4831 17.2906 40.6519 15.4006 40.6519 12.906C40.6519 10.3765 42.4831 8.69922 44.9777 8.69922H47.139C49.705 8.69922 51.4775 10.413 51.4775 12.906C51.4775 15.399 49.6574 17.2906 47.139 17.2906H44.9777ZM47.139 15.1054C48.4164 15.1054 49.3035 14.2295 49.3035 13.0123C49.3035 11.7952 48.4037 10.8732 47.139 10.8732H44.9777C44.6946 10.8651 44.4128 10.9149 44.1496 11.0195C43.8864 11.1242 43.6473 11.2814 43.447 11.4817C43.2468 11.682 43.0895 11.9211 42.9849 12.1842C42.8802 12.4474 42.8305 12.7292 42.8386 13.0123C42.8386 14.2422 43.724 15.1054 44.9777 15.1054H47.139Z" fill="white"/>
<path id="Vector_3" d="M52.9708 17.2904V15.1053H59.5056C60.0134 15.1053 60.3212 14.8673 60.3212 14.442C60.3212 14.0167 60.0134 13.7454 59.5056 13.7454H55.6764C53.9166 13.7454 52.8296 12.7282 52.8296 11.2397C52.8296 9.78611 53.8452 8.70068 55.7002 8.70068H61.9525V10.8747H55.7002C55.6187 10.8679 55.5367 10.8792 55.4601 10.9078C55.3834 10.9364 55.3141 10.9816 55.2569 11.0401C55.1998 11.0986 55.1562 11.1691 55.1295 11.2464C55.1027 11.3236 55.0933 11.4059 55.102 11.4872C55.0939 11.5689 55.1037 11.6513 55.1309 11.7287C55.158 11.8061 55.2018 11.8766 55.2591 11.9353C55.3165 11.994 55.3859 12.0394 55.4627 12.0684C55.5395 12.0973 55.6216 12.1091 55.7034 12.1029H59.5119C61.3908 12.1029 62.3969 12.8964 62.3969 14.6419C62.3969 16.1542 61.4447 17.2888 59.5119 17.2888L52.9708 17.2904Z" fill="white"/>
<path id="Vector_4" d="M65.3802 10.2338C65.4962 9.81559 65.7225 9.43629 66.0356 9.13568C66.3434 8.84529 66.7655 8.69929 67.3051 8.69929H69.8695C70.3467 8.67475 70.8157 8.83052 71.1834 9.13568C71.5122 9.42895 71.7505 9.80988 71.8705 10.2338L73.9858 17.2906H71.6261L71.0501 15.2277L70.4725 13.1648L69.8108 10.7606H67.4304L65.6151 17.289H63.2554L65.3802 10.2338Z" fill="white"/>
<path id="Vector_5" d="M87.7725 10.2338C87.8881 9.81576 88.1139 9.43648 88.4263 9.13568C88.7342 8.84529 89.1563 8.69929 89.6958 8.69929H92.2602C92.7374 8.67475 93.2064 8.83052 93.5741 9.13568C93.9029 9.42895 94.1413 9.80988 94.2613 10.2338L96.3718 17.2906H94.0185L93.4424 15.2277L92.8648 13.1648L92.2031 10.7622H89.8228L88.0074 17.2906H85.6477L87.7725 10.2338Z" fill="white"/>
<path id="Vector_6" d="M77.3768 12.1379V17.2904H75.2964V9.86862C75.2964 9.07518 75.7233 8.58008 76.385 8.58008C76.7024 8.58008 76.9277 8.6864 77.2229 8.95934L82.423 13.7454V8.59277H84.5034V16.1209C84.5034 16.9143 84.0655 17.4095 83.4164 17.4095C83.2576 17.4093 83.1006 17.3755 82.9559 17.3101C82.8112 17.2447 82.682 17.1493 82.577 17.0302L77.3768 12.1379Z" fill="white"/>
<path id="Vector_7" d="M9.91247 6.2364C9.63098 5.67396 9.1678 5.22306 8.59799 4.9568C8.02818 4.69055 7.38515 4.62453 6.77313 4.76945C6.16111 4.91437 5.61597 5.26175 5.22607 5.75526C4.83617 6.24877 4.62437 6.8595 4.625 7.48844V21.2943H6.46895V7.48844C6.47224 7.27662 6.54607 7.07194 6.67877 6.9068C6.81147 6.74167 6.99546 6.6255 7.20161 6.5767C7.40776 6.52789 7.6243 6.54923 7.81695 6.63734C8.00961 6.72545 8.16738 6.87529 8.26529 7.06316L14.4779 19.4503H12.415L9.17616 12.9949H7.11322L11.2788 21.2943H17.4676L9.91247 6.2364Z" fill="#10E80C"/>
<path id="Vector_8" d="M21.5919 4.69531V18.5011C21.588 18.7124 21.5139 18.9164 21.3813 19.0809C21.2487 19.2454 21.0651 19.3612 20.8595 19.4099C20.6538 19.4586 20.4379 19.4375 20.2455 19.35C20.0532 19.2625 19.8955 19.1135 19.7971 18.9264L13.5845 6.53926H15.6475L18.8863 12.9947H20.9492L16.7852 4.69531H10.5964L18.1484 19.7532C18.4304 20.3151 18.8938 20.7654 19.4635 21.0313C20.0333 21.2971 20.6761 21.363 21.2879 21.2182C21.8997 21.0733 22.4448 20.7263 22.8349 20.2332C23.225 19.7401 23.4373 19.1299 23.4374 18.5011V4.69531H21.5919Z" fill="#10E80C"/>
</g>
</g>
</svg>
