<svg width="96" height="26" viewBox="0 0 96 26" fill="none" xmlns="http://www.w3.org/2000/svg">
<g id="image">
<path id="Vector" d="M21.3008 24.7219V8.00293H26.6237V24.7219H21.3008Z" fill="white"/>
<path id="Vector_2" d="M23.9764 6.04903C23.2261 6.04903 22.589 5.80836 22.0511 5.31288C21.5131 4.8174 21.2441 4.20866 21.2441 3.50083C21.2441 2.80716 21.5131 2.21258 22.0511 1.7171C22.589 1.22162 23.2261 0.966797 23.9764 0.966797C24.7267 0.966797 25.3779 1.22162 25.9017 1.7171C26.4396 2.21258 26.7086 2.80716 26.7086 3.50083C26.7086 4.20866 26.4396 4.80324 25.9017 5.31288C25.3637 5.80836 24.7267 6.04903 23.9764 6.04903Z" fill="white"/>
<path id="Vector_3" fill-rule="evenodd" clip-rule="evenodd" d="M9.23916 24.7215H1V2.4248H9.225C11.4901 2.4248 13.4578 2.87782 15.0858 3.76968C16.728 4.66155 18.0021 5.93565 18.894 7.60613C19.7858 9.26247 20.2389 11.2585 20.2389 13.5661C20.2389 15.8878 19.7858 17.8838 18.894 19.5543C18.0021 21.2248 16.7422 22.4989 15.1 23.3908C13.4578 24.2685 11.5042 24.7215 9.23916 24.7215ZM6.39367 20.1206H9.04096C10.2868 20.1206 11.3485 19.9082 12.212 19.4835C13.0898 19.0588 13.741 18.3652 14.1798 17.4025C14.6328 16.4399 14.8593 15.1516 14.8593 13.5519C14.8593 11.9522 14.6328 10.6781 14.1798 9.71548C13.7268 8.75283 13.0614 8.0733 12.1837 7.6486C11.306 7.22391 10.2443 7.01155 8.95602 7.01155H6.39367V20.1206Z" fill="white"/>
<path id="Vector_4" fill-rule="evenodd" clip-rule="evenodd" d="M30.3329 24.467C31.1539 24.8209 32.1024 25.005 33.1783 25.005C33.9569 25.005 34.6506 24.9059 35.2735 24.7077C35.8964 24.5095 36.4344 24.2122 36.9015 23.83C37.3687 23.4336 37.7509 22.9523 38.0482 22.4002H38.1756V24.736H43.1871V13.3541C43.1871 12.4622 43.003 11.6836 42.635 10.9899C42.2669 10.2962 41.7572 9.71583 41.0919 9.24866C40.4265 8.76733 39.6338 8.41342 38.7419 8.1586C37.8359 7.90378 36.8591 7.77637 35.7973 7.77637C34.2967 7.77637 33.0226 8.00287 31.9609 8.47004C30.8991 8.92305 30.0639 9.5601 29.4551 10.367C28.8464 11.1598 28.4783 12.0658 28.3368 13.0851L33.2491 13.255C33.3624 12.717 33.6313 12.2923 34.0702 11.995C34.4949 11.6836 35.0612 11.542 35.769 11.542C36.4202 11.542 36.944 11.6978 37.3262 11.995C37.7422 12.334 37.9066 12.816 37.9066 13.3399C37.9066 13.6797 37.7792 13.9487 37.5103 14.1327C37.2554 14.3167 36.8307 14.4583 36.2503 14.5574C35.6699 14.6565 34.9054 14.7414 33.9569 14.8264C33.1076 14.8972 32.3148 15.0387 31.5645 15.2511C30.8142 15.4493 30.163 15.7607 29.5825 16.1571C29.0021 16.5535 28.5633 17.0773 28.2377 17.7143C27.9121 18.3514 27.7422 19.13 27.7422 20.0643C27.7422 21.1685 27.9829 22.0887 28.45 22.8249C28.8606 23.561 29.5118 24.099 30.3329 24.467ZM36.3636 21.1685C35.9106 21.395 35.3868 21.5225 34.8205 21.5225C34.2118 21.5225 33.7021 21.3809 33.3057 21.0836C32.9094 20.7863 32.7112 20.3758 32.7112 19.8237C32.7112 19.4556 32.7961 19.1441 32.9801 18.8893C33.1642 18.6203 33.4332 18.408 33.7871 18.2381C34.141 18.0682 34.5657 17.9408 35.0753 17.87C35.316 17.8276 35.585 17.7993 35.8539 17.7568C36.1229 17.7143 36.3777 17.6577 36.6326 17.6011C36.8874 17.5444 37.1139 17.4878 37.3262 17.417C37.5386 17.3462 37.7226 17.2755 37.8783 17.2047V18.7902C37.8783 19.3282 37.7368 19.8095 37.4678 20.22C37.1988 20.6164 36.8307 20.942 36.3636 21.1685Z" fill="white"/>
<path id="Vector_5" d="M49.9957 2.4248V24.7215H44.6729V2.4248H49.9957Z" fill="white"/>
<path id="Vector_6" d="M71.7974 23.9432C73.0573 24.6652 74.5721 25.0333 76.3416 25.0333C77.913 25.0333 79.2579 24.7502 80.4046 24.1839C81.5513 23.6035 82.4432 22.8107 83.066 21.7773C83.7031 20.7438 84.0428 19.5405 84.0995 18.1673H79.1305C79.0597 18.7619 78.904 19.2574 78.6633 19.6679C78.4227 20.0785 78.0971 20.3758 77.7148 20.5881C77.3326 20.8005 76.9079 20.8996 76.4124 20.8996C75.7895 20.8996 75.2516 20.7297 74.7844 20.3899C74.3172 20.036 73.9633 19.5264 73.6944 18.861C73.4395 18.1815 73.3121 17.3462 73.3121 16.3553C73.3121 15.3643 73.4395 14.5432 73.6944 13.8779C73.9492 13.1984 74.3172 12.6887 74.7844 12.349C75.2516 11.995 75.7895 11.8252 76.4124 11.8252C77.1769 11.8252 77.7856 12.0658 78.2669 12.5613C78.7483 13.0426 79.0314 13.7222 79.1447 14.5715H84.1136C84.0712 13.1984 83.7314 12.0092 83.0802 10.9899C82.429 9.97065 81.5371 9.17787 80.3763 8.61161C79.2296 8.0595 77.8847 7.77637 76.3416 7.77637C74.5862 7.77637 73.0856 8.14444 71.8257 8.86643C70.5657 9.58842 69.6031 10.6077 68.9236 11.9101C68.2441 13.1984 67.9043 14.699 67.9043 16.4119C67.9043 18.1107 68.2441 19.6255 68.9236 20.9137C69.5748 22.2161 70.5374 23.2212 71.7974 23.9432Z" fill="white"/>
<path id="Vector_7" fill-rule="evenodd" clip-rule="evenodd" d="M59.368 25.0333C57.6126 25.0333 56.112 24.6935 54.8379 23.9999C53.5779 23.3062 52.6011 22.3152 51.9216 21.027C51.2421 19.7387 50.9023 18.1956 50.9023 16.4261C50.9023 14.699 51.2421 13.1842 51.9216 11.8959C52.6011 10.5935 53.5638 9.58842 54.8096 8.86643C56.0554 8.14444 57.5135 7.77637 59.1981 7.77637C60.3873 7.77637 61.4773 7.9604 62.4683 8.32848C63.4593 8.69655 64.3087 9.24866 65.0307 9.97064C65.7526 10.6926 66.3048 11.5987 66.7011 12.6604C67.0975 13.7222 67.2957 14.9396 67.2957 16.3128V17.6435H56.1545V17.7851C56.1545 18.4646 56.2819 19.0592 56.5508 19.583C56.8198 20.0926 57.202 20.489 57.6975 20.7722C58.193 21.0553 58.7734 21.1968 59.4671 21.1968C59.9343 21.1968 60.3731 21.1261 60.7554 20.9987C61.1376 20.8712 61.4632 20.6731 61.7463 20.4182C62.0153 20.1634 62.2276 19.852 62.3692 19.4839L67.2532 19.6255C67.0551 20.7155 66.602 21.6782 65.9084 22.4851C65.2288 23.292 64.337 23.9149 63.2186 24.3679C62.1002 24.8068 60.8261 25.0333 59.368 25.0333ZM62.3551 14.5291C62.3409 13.9628 62.256 13.524 62.0011 13.0851C61.7463 12.6462 61.3358 12.2357 60.8828 11.995C60.4298 11.7402 59.9201 11.6128 59.3255 11.6128C58.731 11.6128 58.193 11.7402 57.7258 12.0092C57.2587 12.264 56.8764 12.6321 56.6075 13.0851C56.3526 13.5098 56.1969 13.9911 56.1686 14.5291H62.3551Z" fill="white"/>
<path id="Vector_8" d="M94.6883 8.00291V11.9243H91.6729V19.4698C91.6729 19.7954 91.7296 20.0644 91.8286 20.2625C91.9419 20.4607 92.0976 20.6023 92.2958 20.6872C92.494 20.7722 92.7488 20.8005 93.032 20.8005C93.2302 20.8005 93.4425 20.7863 93.669 20.7439C93.8955 20.7014 94.0796 20.6589 94.1928 20.6306L94.9997 24.4671C94.7449 24.5379 94.391 24.6369 93.9238 24.736C93.4708 24.8493 92.9187 24.9201 92.2817 24.9484C91.0359 25.005 89.96 24.8635 89.0681 24.5095C88.1762 24.1556 87.5109 23.6035 87.0296 22.8532C86.5624 22.1029 86.3359 21.1686 86.35 20.036V11.9101H84.1416V8.00291H86.35V3.99658H91.6729V8.00291H94.6883Z" fill="white"/>
</g>
</svg>
