<svg width="101" height="28" viewBox="0 0 101 28" fill="none" xmlns="http://www.w3.org/2000/svg">
<g id="image" clip-path="url(#clip0_44_2242)">
<path id="Vector" fill-rule="evenodd" clip-rule="evenodd" d="M34.8715 17.0788L33.6387 14.9493H31.8337V17.0788H30.772V10.6846H33.969C34.3587 10.6816 34.7418 10.7855 35.0766 10.9851C35.4113 11.1847 35.6848 11.4724 35.8674 11.8167C36.0499 12.1611 36.1344 12.5489 36.1117 12.938C36.089 13.3271 35.96 13.7025 35.7386 14.0232C35.5075 14.3635 35.1813 14.6281 34.8007 14.7842L36.1161 17.0788H34.8715ZM33.969 11.77H31.8337V13.8935H33.969C34.1086 13.8934 34.2466 13.8646 34.3745 13.8087C34.5023 13.753 34.6173 13.6713 34.7122 13.5691C34.8592 13.4198 34.9591 13.2306 34.9993 13.0251C35.0396 12.8195 35.0185 12.6066 34.9386 12.4129C34.8587 12.2192 34.7237 12.0533 34.5502 11.9358C34.3768 11.8184 34.1726 11.7546 33.9631 11.7523L33.969 11.77ZM45.3358 10.6846L42.1328 17.0788H43.3244L45.3358 13.0736L47.3414 17.0788H48.5329L45.3358 10.6846ZM58.8319 10.6846H57.4752L55.6525 13.0441L53.8357 10.6846H52.4731L55.1452 14.0941V17.0788H56.207V14.041L58.8319 10.6846ZM64.2704 10.6846H66.3998C67.2458 10.6908 68.0554 11.0296 68.6536 11.6279C69.2519 12.2261 69.5907 13.0357 69.5969 13.8817C69.5922 14.7282 69.2539 15.5386 68.6553 16.1372C68.0568 16.7358 67.2463 17.0741 66.3998 17.0788H64.2704V10.6846ZM66.3998 15.9934C66.9641 15.9919 67.5048 15.767 67.9038 15.368C68.3028 14.969 68.5276 14.4283 68.5292 13.864C68.5231 13.3011 68.2967 12.7631 67.8987 12.3651C67.5007 11.9671 66.9626 11.7407 66.3998 11.7346H65.3262V15.9934H66.3998ZM76.6931 10.6846H75.6313V17.0788H76.6931V10.6846ZM88.0541 14.4066C88.06 14.7584 87.9933 15.1076 87.8583 15.4324C87.7233 15.7571 87.5233 16.0506 87.2691 16.2942C86.8966 16.6669 86.4225 16.9206 85.9058 17.0231C85.3883 17.1256 84.8533 17.0725 84.3666 16.8703C83.88 16.6681 83.4646 16.3261 83.1728 15.8875C82.881 15.4489 82.7259 14.9335 82.7273 14.4066V10.6846H83.7891V14.4066C83.7891 14.8306 83.9575 15.2372 84.2575 15.5371C84.5566 15.8368 84.9633 16.0052 85.3875 16.0052C85.8116 16.0052 86.2183 15.8368 86.5183 15.5371C86.8175 15.2372 86.9858 14.8306 86.9858 14.4066V10.6846H88.0541V14.4066ZM95.15 17.0788V13.2565L97.2908 15.3917L99.4208 13.2565V17.0788H100.5V10.6846L97.2908 13.8817L94.0941 10.6846V17.0788H95.15Z" fill="#F1F1F2"/>
<g id="Group">
<path id="Vector_2" d="M22.8854 10.4842V19.9928L12.3091 26.0979L1.72692 19.9928V7.77669L12.3091 1.66568L20.4375 6.36102L21.6644 5.65318L12.3091 0.25L0.5 7.06885V20.7007L12.3091 27.5195L24.1182 20.7007V9.77633L22.8854 10.4842Z" fill="url(#paint0_linear_44_2242)"/>
<path id="Vector_3" d="M9.34798 19.9986H7.57837V14.0645H13.4771C14.0351 14.0584 14.5683 13.8327 14.9613 13.4364C15.3543 13.0401 15.5755 12.505 15.577 11.9469C15.5801 11.671 15.5269 11.3972 15.4204 11.1426C15.3138 10.888 15.1564 10.6579 14.9576 10.4664C14.7652 10.2687 14.535 10.112 14.2806 10.0055C14.0261 9.89903 13.7528 9.84512 13.4771 9.84695H7.57837V8.04199H13.4829C14.5166 8.04818 15.5063 8.46158 16.2373 9.19253C16.9682 9.92353 17.3816 10.9132 17.3878 11.9469C17.3941 12.7382 17.1529 13.5116 16.6977 14.1589C16.2788 14.7782 15.6885 15.262 14.9989 15.551C14.3161 15.7675 13.6035 15.875 12.8871 15.8695H9.34798V19.9986Z" fill="url(#paint1_linear_44_2242)"/>
<path id="Vector_4" d="M17.3466 19.8511H15.282L13.6895 17.0728C14.3195 17.0342 14.941 16.9071 15.5357 16.6953L17.3466 19.8511Z" fill="url(#paint2_linear_44_2242)"/>
<path id="Vector_5" d="M21.6526 8.50792L22.8736 9.18629L24.0947 8.50792V7.07454L22.8736 6.3667L21.6526 7.07454V8.50792Z" fill="url(#paint3_linear_44_2242)"/>
</g>
</g>
<defs>
<linearGradient id="paint0_linear_44_2242" x1="24.0973" y1="7.07635" x2="-0.944467" y2="17.0905" gradientUnits="userSpaceOnUse">
<stop stop-color="#C200FB"/>
<stop offset="0.489658" stop-color="#3772FF"/>
<stop offset="0.489758" stop-color="#3773FE"/>
<stop offset="1" stop-color="#5AC4BE"/>
</linearGradient>
<linearGradient id="paint1_linear_44_2242" x1="24.0973" y1="7.07622" x2="-0.944489" y2="17.0904" gradientUnits="userSpaceOnUse">
<stop stop-color="#C200FB"/>
<stop offset="0.489658" stop-color="#3772FF"/>
<stop offset="0.489758" stop-color="#3773FE"/>
<stop offset="1" stop-color="#5AC4BE"/>
</linearGradient>
<linearGradient id="paint2_linear_44_2242" x1="24.0974" y1="7.07616" x2="-0.94443" y2="17.0903" gradientUnits="userSpaceOnUse">
<stop stop-color="#C200FB"/>
<stop offset="0.489658" stop-color="#3772FF"/>
<stop offset="0.489758" stop-color="#3773FE"/>
<stop offset="1" stop-color="#5AC4BE"/>
</linearGradient>
<linearGradient id="paint3_linear_44_2242" x1="24.0973" y1="7.07614" x2="-0.944462" y2="17.0903" gradientUnits="userSpaceOnUse">
<stop stop-color="#C200FB"/>
<stop offset="0.489658" stop-color="#3772FF"/>
<stop offset="0.489758" stop-color="#3773FE"/>
<stop offset="1" stop-color="#5AC4BE"/>
</linearGradient>
<clipPath id="clip0_44_2242">
<rect width="100" height="27.5" fill="white" transform="translate(0.5 0.25)"/>
</clipPath>
</defs>
</svg>
