<svg width="101" height="18" viewBox="0 0 101 18" fill="none" xmlns="http://www.w3.org/2000/svg">
<g id="image" clip-path="url(#clip0_44_2280)">
<path id="Vector" d="M26.3994 14.6758H28.2274C28.3729 14.6758 28.4699 14.5788 28.4699 14.4333V10.1306H32.6271V14.4333C32.6271 14.5788 32.7241 14.6758 32.8696 14.6758H34.6976C34.8431 14.6758 34.9401 14.5788 34.9401 14.4333V3.59496C34.9401 3.44943 34.8431 3.35241 34.6976 3.35241H32.8696C32.7241 3.35241 32.6271 3.44943 32.6271 3.59496V8.09169H28.4699V3.59496C28.4699 3.44943 28.3729 3.35241 28.2274 3.35241H26.3994C26.2539 3.35241 26.1569 3.44943 26.1569 3.59496V14.4333C26.1569 14.5788 26.2539 14.6758 26.3994 14.6758ZM40.1439 14.8699C41.2596 14.8699 42.2791 14.5465 42.959 13.8673C43.1038 13.7372 43.1207 13.6248 43.0398 13.5108L42.4408 12.6862C42.3599 12.573 42.2791 12.5568 42.1659 12.6215C41.5191 12.9934 40.9362 13.1066 40.321 13.1066C39.0436 13.1066 38.2189 12.5568 37.9764 11.5535H42.7965C43.4918 11.5535 43.6697 11.117 43.6697 10.3408C43.6697 8.33424 42.2791 6.55554 39.8683 6.55554C37.4259 6.55554 35.792 8.35115 35.792 10.6804C35.792 13.0743 37.5398 14.8699 40.1439 14.8699ZM37.9441 9.98505C38.1381 8.93327 38.8981 8.39966 39.8845 8.39966C40.8392 8.39966 41.5507 8.93327 41.6801 9.98505H37.9441ZM44.6032 14.6758H46.3664C46.5119 14.6758 46.609 14.5788 46.609 14.4333V3.35241C46.609 3.20688 46.5119 3.10986 46.3664 3.10986H44.6032C44.4576 3.10986 44.3606 3.20688 44.3606 3.35241V14.4333C44.3606 14.5788 44.4576 14.6758 44.6032 14.6758ZM47.9643 14.6758H49.7283C49.8738 14.6758 49.9709 14.5788 49.9709 14.4333V3.35241C49.9709 3.20688 49.8738 3.10986 49.7283 3.10986H47.9643C47.8195 3.10986 47.7218 3.20688 47.7218 3.35241V14.4333C47.7218 14.5788 47.8195 14.6758 47.9643 14.6758ZM54.8366 14.8699C57.2143 14.8699 58.9775 13.0581 58.9775 10.7127C58.9775 8.36732 57.2143 6.55554 54.8366 6.55554C52.4427 6.55554 50.6794 8.36732 50.6794 10.7127C50.6794 13.0581 52.4427 14.8699 54.8366 14.8699ZM52.8307 10.7127C52.8307 9.4191 53.7039 8.60987 54.8366 8.60987C55.953 8.60987 56.8262 9.41837 56.8262 10.712C56.8262 12.007 55.953 12.8155 54.8366 12.8155C53.7047 12.8155 52.8307 12.007 52.8307 10.7127ZM62.4291 14.6758H64.2571C64.4026 14.6758 64.4996 14.5788 64.4996 14.4333V7.68744L64.7098 8.38349L67.1037 14.4818C67.1522 14.6111 67.2654 14.6758 67.3955 14.6758H69.0125C69.1419 14.6758 69.2551 14.6111 69.3043 14.4818L71.6982 8.38349L71.9084 7.68744V14.4333C71.9084 14.5788 72.0054 14.6758 72.151 14.6758H73.9789C74.1244 14.6758 74.2215 14.5788 74.2215 14.4333V3.59496C74.2215 3.44943 74.1244 3.35241 73.9789 3.35241H71.8592C71.7298 3.35241 71.6328 3.40092 71.5843 3.51411L68.2033 12.007L64.8223 3.51411C64.7738 3.40092 64.6767 3.35241 64.5474 3.35241H62.4291C62.2836 3.35241 62.1866 3.44943 62.1866 3.59496V14.4333C62.1866 14.5788 62.2836 14.6758 62.4291 14.6758ZM79.2334 14.8699C81.6111 14.8699 83.3744 13.0581 83.3744 10.7127C83.3744 8.36732 81.6111 6.55554 79.2334 6.55554C76.8395 6.55554 75.0763 8.36732 75.0763 10.7127C75.0763 13.0581 76.8395 14.8699 79.2334 14.8699ZM77.2276 10.7127C77.2276 9.4191 78.1008 8.60987 79.2334 8.60987C80.3499 8.60987 81.2231 9.41837 81.2231 10.712C81.2231 12.007 80.3499 12.8155 79.2334 12.8155C78.1008 12.8155 77.2276 12.007 77.2276 10.7127ZM87.8241 14.8699C90.2018 14.8699 91.9651 13.0581 91.9651 10.7127C91.9651 8.36732 90.2018 6.55554 87.8241 6.55554C85.4295 6.55554 83.6662 8.36732 83.6662 10.7127C83.6662 13.0581 85.4295 14.8699 87.8241 14.8699ZM85.8183 10.7127C85.8183 9.4191 86.6915 8.60987 87.8241 8.60987C88.9398 8.60987 89.8137 9.41837 89.8137 10.712C89.8137 12.007 88.9398 12.8155 87.8241 12.8155C86.6915 12.8155 85.8183 12.007 85.8183 10.7127ZM92.9037 14.6758H94.6508C94.7963 14.6758 94.8933 14.5788 94.8933 14.4333V10.3246C94.8933 9.20816 95.5085 8.60987 96.4464 8.60987C97.4011 8.60987 97.9186 9.20816 97.9186 10.3246V14.4333C97.9186 14.5788 98.0156 14.6758 98.1611 14.6758H99.8921C100.038 14.6758 100.151 14.5788 100.151 14.4333V9.82262C100.151 7.75212 98.9373 6.55554 97.2879 6.55554C96.1068 6.55554 95.3468 7.13766 94.8933 7.9469L94.8286 7.0083C94.8286 6.81426 94.7316 6.74958 94.5861 6.74958H92.9037C92.7581 6.74958 92.6611 6.8466 92.6611 6.99213V14.4333C92.6611 14.5788 92.7581 14.6758 92.9037 14.6758Z" fill="#E4E5E7"/>
<g id="Clip path group">
<mask id="mask0_44_2280" style="mask-type:luminance" maskUnits="userSpaceOnUse" x="0" y="0" width="19" height="18">
<g id="HelloMoon_svg__a">
<path id="Vector_2" d="M0.52002 0.169922H18.16V17.8099H0.52002V0.169922Z" fill="white"/>
</g>
</mask>
<g mask="url(#mask0_44_2280)">
<g id="Group">
<path id="Vector_3" d="M12.1719 12.481H11.839V12.8102H12.1719V12.481Z" fill="#EAEAEA"/>
<path id="Vector_4" d="M12.8481 11.8165H12.5078V12.1429H12.8481V11.8165ZM16.1725 12.481V12.1429H15.8433V11.4836H15.1744V11.1514H14.5041V11.8165H13.5096V12.4817H13.1789V12.8103H12.8481V13.8055H12.51V13.485H11.8449V13.8055H11.179V14.8065H10.8467V15.4739H10.5079V15.8024H10.1772V15.4739H9.5083V16.4691H8.84533V16.8043H8.18751V16.4735H7.51572V16.1347H6.51538V16.8035H6.84834V17.1365H6.51538V17.4694H7.84794V17.8016H11.1775L11.1797 17.4665H12.1793V17.1401L12.8437 17.1372L12.8423 16.8043H13.5089V16.472H14.1756V16.1391H14.5085V15.8069H15.1744V15.4739H14.1726V15.8091H13.8411V16.1413H13.503V15.8091H13.8411V15.4739H13.1782V14.8065H12.8474V15.1417H12.5093V14.8065H12.8474V14.4765C12.8474 14.4765 14.5114 14.4839 14.5048 14.4765C14.4975 14.4699 14.5048 15.1402 14.5048 15.1402H14.8341V13.4791H15.8411V13.141H15.511V12.8081H15.5096V12.4817H16.1718L16.1725 12.481ZM11.839 14.8073H11.5104V14.4772L11.839 14.4758V14.8065V14.8073ZM12.8481 15.4746V15.8098H13.1723V16.4742H12.8489L12.8481 15.8098H12.5093V15.4746H12.8481ZM11.839 12.1502V12.4825H11.5104V12.1502H11.839Z" fill="white"/>
<path id="Vector_5" d="M2.84993 10.4895H2.51918V10.8187H1.85254V10.1543H2.84773L2.85067 10.4902L2.84993 10.4895Z" fill="#959595"/>
<path id="Vector_6" d="M8.84904 1.84002V2.17739H8.51241V2.50961H7.84723V2.17739H6.85425V1.84002H7.51648V1.51074H8.51608V1.84002H8.84904Z" fill="white"/>
<path id="Vector_7" d="M10.1794 0.506348H8.51538V0.845183H10.1794V0.506348Z" fill="#EAEAEA"/>
<path id="Vector_8" d="M6.84842 16.8042H6.51547V17.1372H6.84842V16.8042Z" fill="#959595"/>
<path id="Vector_9" d="M4.847 13.8123V14.1438H3.18369V13.8115H2.85147V13.1478H2.51852V12.4812H2.18483V11.4838H1.85187V11.1457H1.51965V10.8186H1.5248V9.48975H1.85261V10.8201H2.51925V11.4845H2.85221V12.8149H3.51738V13.1486H3.8496V13.4801H4.18256V13.813H4.84773L4.847 13.8123ZM7.51578 14.8134H7.18209V15.1426H7.51578V14.8134Z" fill="#888888"/>
<path id="Vector_10" d="M6.5198 15.4741H5.85168V15.8078H6.52053L6.5198 15.4741Z" fill="#ADADAD"/>
<path id="Vector_11" d="M6.51103 15.1382H6.18542V15.4748H6.51103V15.1382Z" fill="#B4B4B4"/>
<path id="Vector_12" d="M6.5154 16.8042H5.84875V17.1364H6.5154V16.8042Z" fill="white"/>
<path id="Vector_13" d="M5.85029 16.4724L5.84882 16.8054L5.18365 16.8032V16.471L5.85029 16.4724ZM5.18291 16.1395H4.517V16.4724H5.18291V16.1395ZM3.85109 15.1421H3.18445V15.475H3.85109V15.1421ZM4.517 15.8073H4.18405V16.1402H4.517V15.8073Z" fill="white"/>
<path id="Vector_14" d="M4.18403 15.4739H3.85107V15.8076H4.18403V15.4739ZM3.18443 14.8088H2.85147V15.1424H3.18443V14.8088ZM2.51852 13.8114H2.18483V14.1443H2.51852V13.8114ZM1.85187 12.814H1.51965V13.1469H1.85261L1.85187 12.814ZM2.85147 14.1436H2.51852V14.8088H2.85147V14.1436Z" fill="white"/>
<path id="Vector_15" d="M2.18479 13.1462H1.85184V13.8114H2.18479V13.1462ZM1.51962 11.8166H1.18519V12.814H1.51815V11.8166H1.51962ZM1.18593 10.8192H0.85371V11.8166H1.18593V10.8192ZM0.852975 7.16113H0.52002V10.8185H0.852975V7.16113Z" fill="white"/>
<path id="Vector_16" d="M7.5158 15.1418V15.474H7.18064V16.1347H6.51547V16.8036H5.84882L5.85029 16.4728L5.18365 16.4706V16.1399H4.517V15.8069H4.18405V15.474H3.85109V15.1418H3.18445V14.8088H2.85149V14.1436H2.51854V13.8114H2.18485V13.1462H1.85189V12.814H1.51967V11.8166H1.18598V10.8192H0.853762V10.8185L0.853027 7.16113H1.52555V10.8185H1.51894V11.1456H1.85189V11.4837H2.18485V12.4811H2.51854V13.1477H2.85149V13.8114H3.18371V14.1436H4.84702V14.4766H6.18545V15.474H5.85176V15.8069H6.52061V15.474H6.84695V15.1418H7.5158Z" fill="#959595"/>
<path id="Vector_17" d="M8.84532 15.1421V15.8073H8.18014V16.1351H7.18054V15.4743H7.5157V15.1421H8.84532Z" fill="#888888"/>
<path id="Vector_18" d="M9.50907 15.4741V16.4693H8.84536V16.8045H8.18754V16.4737H7.51575V16.1349H8.18019V15.8071H8.84536V15.4741H9.50907Z" fill="#959595"/>
<path id="Vector_19" d="M8.84531 15.142V13.4853H7.51496V13.1465H7.18201V14.1439H7.84718V14.479H7.18201V14.8135H7.5157V15.142H8.84531Z" fill="#7F7F7F"/>
<path id="Vector_20" d="M7.5157 14.1436H7.18201V14.4795H7.5157V14.1436Z" fill="#C4C4C4"/>
<path id="Vector_21" d="M7.84723 14.1436H7.51575V14.4795H7.84723V14.1436Z" fill="#ADADAD"/>
<path id="Vector_22" d="M10.1772 15.142V15.4742H9.17761V14.479H9.50836V14.8083H9.84279V15.142H10.1772Z" fill="#7F7F7F"/>
<path id="Vector_23" d="M9.17829 14.479H8.84534V15.4742H9.17829V14.479Z" fill="#868686"/>
<path id="Vector_24" d="M10.508 15.4741H10.1772V15.8034H10.508V15.4741Z" fill="#959595"/>
<path id="Vector_25" d="M10.8468 15.1416V15.4738H10.1772V15.1416H9.84279V14.8079H9.50836V14.4787H8.84539V13.4849H7.51504V13.1461H7.18209V12.8131H6.84619V12.4824H7.18209V11.152H7.51578V10.8184H7.84726V13.1461H8.18095V11.485H8.51464V11.818H8.84466V12.145H9.17835V14.1442H10.1794V14.8057H10.5124V15.1416H10.8468Z" fill="#919191"/>
<path id="Vector_26" d="M6.51096 14.4767H6.18535V15.1382H6.51096V14.4767ZM6.18535 14.1437H5.84284V14.4774L6.18535 14.4767V14.1437ZM5.84284 13.813H5.51062V14.1437H5.84284V13.813Z" fill="#A6A6A6"/>
<path id="Vector_27" d="M5.51067 13.4771H5.18359V13.8137H5.51067V13.4771Z" fill="#969696"/>
<path id="Vector_28" d="M5.18355 13.4771H4.84692V13.8129H5.18355V13.4771Z" fill="#C9C9C9"/>
<path id="Vector_29" d="M4.84692 13.812V14.4765H5.84285V14.1435H5.51063V13.8127L4.84692 13.812Z" fill="#7F7F7F"/>
<path id="Vector_30" d="M7.18208 15.1421V13.4795H6.84618V14.1447H6.51984V13.8117H6.18689V14.4769H6.51176V15.4743H6.84765V15.1421H7.18208Z" fill="white"/>
<path id="Vector_31" d="M6.84612 13.812H6.51978V14.145H6.84612V13.812Z" fill="#C4C4C4"/>
<path id="Vector_32" d="M6.84612 13.4795H6.51978V13.8132H6.84612V13.4795Z" fill="#B0B0B0"/>
<path id="Vector_33" d="M7.18208 12.8135H6.84619V13.4794H7.18208V12.8135ZM6.18616 13.8116V13.4794H6.51985V13.8131L6.18616 13.8123V13.8116Z" fill="#C4C4C4"/>
<path id="Vector_34" d="M6.18541 13.4795H5.8429V14.1439H6.18541V13.4795Z" fill="#EAEAEA"/>
<path id="Vector_35" d="M5.84284 13.4795H5.51062V13.8139H5.84284V13.4795Z" fill="#DFDFDF"/>
<path id="Vector_36" d="M5.18359 13.4778V13.1463C5.18359 13.1463 5.4967 13.1324 5.51067 13.1463C5.52537 13.1603 5.51067 13.4793 5.51067 13.4793L5.18359 13.4778Z" fill="#909090"/>
<path id="Vector_37" d="M5.84284 13.1465H5.51062V13.4794H5.84284V13.1465Z" fill="#ADADAD"/>
<path id="Vector_38" d="M6.18541 13.1465H5.8429V13.4794H6.18541V13.1465ZM6.51983 13.1465H6.18688V13.4794H6.52057L6.51983 13.1465Z" fill="#B0B0B0"/>
<path id="Vector_39" d="M7.51569 10.8185V11.1514H7.182V12.4818H6.84611V13.4792H6.51977V13.1462H5.18354V13.477H4.84691V13.8121H4.18173V13.4792H3.84952V13.1477H4.18468V12.8133H3.84952V12.1474H3.18361V11.4851H2.85286L2.51917 11.4837V10.4899H2.85065L2.84771 10.1541V10.1504H3.18361V9.15151H3.52171L3.51583 8.81856H3.85319L3.84952 8.49442H4.5213V8.15779H4.18468V7.16113H4.5213V7.82484H4.85499V7.49776L5.5165 7.49409V7.82778L5.8546 7.82484V8.15853H5.17987V8.82223H4.85499L4.84765 10.487H6.51609V10.1541H6.84684V10.487L7.18127 10.4899V10.8185H7.51643H7.51569Z" fill="#7F7F7F"/>
<path id="Vector_40" d="M4.18403 9.82275H3.84961V10.1535H4.18403V9.82275Z" fill="#969696"/>
<path id="Vector_41" d="M5.51069 11.1543H4.5155V11.485H5.51069V11.1543Z" fill="#909090"/>
<path id="Vector_42" d="M5.84872 10.8184H5.51062V11.1557H5.84872V10.8184Z" fill="#969696"/>
<path id="Vector_43" d="M6.18612 10.8184H5.84802V11.1557H6.18612V10.8184Z" fill="#C9C9C9"/>
<path id="Vector_44" d="M6.51617 10.8184H6.18542V11.1557H6.51617V10.8184Z" fill="#969696"/>
<path id="Vector_45" d="M6.84617 10.8184H6.51542V11.1557H6.84617V10.8184ZM2.85144 11.4835V11.8172H3.18219V11.485L2.85144 11.4835Z" fill="#C9C9C9"/>
<path id="Vector_46" d="M4.18403 11.8169H3.84961V12.1476H4.18477L4.18403 11.8169Z" fill="#969696"/>
<path id="Vector_47" d="M4.18403 11.4854H3.84961V11.8176H4.18477L4.18403 11.4854Z" fill="#919191"/>
<path id="Vector_48" d="M2.85144 12.8134H3.51662V13.1471H4.184V12.8134H3.84957V12.1475H2.85144V12.8134Z" fill="#B6B6B6"/>
<path id="Vector_49" d="M10.1794 14.1452V13.8057H9.83618V14.1445L10.1794 14.1452Z" fill="#DFDFDF"/>
<path id="Vector_50" d="M9.83617 13.8058H9.5113V13.4854H9.17761V14.1446H9.83617V13.8058Z" fill="#D4D4D4"/>
<path id="Vector_51" d="M10.1794 13.4854H9.83618V13.8058H10.1794V13.4854ZM11.179 13.8058V14.4754H10.8468V14.8061H10.1794V13.8058H10.508V14.1439H10.8468V13.8058H11.179Z" fill="#D4D4D4"/>
<path id="Vector_52" d="M10.8468 14.8066H10.5123V15.1425H10.8468V14.8066ZM11.179 14.4751H10.8468V14.8073H11.179V14.4751Z" fill="#DFDFDF"/>
<path id="Vector_53" d="M9.83617 13.4853H9.5113V13.8058H9.83617V13.4853ZM11.179 13.1465H9.17834V13.4853H11.1798V13.1465H11.179Z" fill="#EAEAEA"/>
<path id="Vector_54" d="M12.8482 12.8105V13.4852H11.845V13.8057H10.1794V13.4852H11.179V13.1464H11.5098V12.4819H11.8391V12.8105H12.8482Z" fill="#DFDFDF"/>
<path id="Vector_55" d="M10.8468 13.8054H10.5072V14.1443H10.8468V13.8054Z" fill="#DFDFDF"/>
<path id="Vector_56" d="M9.50689 12.145H9.17834V13.1461H9.50689V12.145Z" fill="#D4D4D4"/>
<path id="Vector_57" d="M11.5104 12.8105H9.50684V13.1472H11.5104V12.8105Z" fill="white"/>
<path id="Vector_58" d="M9.17829 11.8184H8.8446V12.1462H9.17829V11.8184Z" fill="#7F7F7F"/>
<path id="Vector_59" d="M12.5078 11.8168V12.1424H12.8481V12.482H12.1719V12.1513H11.1797V11.8213H12.1719V11.4839H12.8481V11.8168H12.5078Z" fill="#DFDFDF"/>
<path id="Vector_60" d="M11.5105 12.1506V12.8106H11.1798V12.4821H10.8468V11.8213H11.179V12.1506H11.5098H11.5105Z" fill="#E6E6E6"/>
<path id="Vector_61" d="M12.1719 12.1504H11.839V12.4826H12.1719V12.1504ZM12.8481 12.4811H12.1719V12.8104H12.8481V12.4811Z" fill="white"/>
<path id="Vector_62" d="M12.8482 13.4854H12.5101V13.8058H12.8482V13.4854Z" fill="#EAEAEA"/>
<path id="Vector_63" d="M13.1789 11.4839H12.8481V11.8168H13.1789V11.4839Z" fill="white"/>
<path id="Vector_64" d="M13.5096 11.8169H12.8481V12.4821H13.5096V11.8169Z" fill="#DFDFDF"/>
<path id="Vector_65" d="M13.1789 12.481H12.8481V12.8102H13.1789V12.481Z" fill="#DFDFDF"/>
<path id="Vector_66" d="M10.8468 11.8211V12.4819H11.179V12.8104H9.50685V12.1452H9.1783V11.8181H8.5146V11.4845H8.18091V10.4863H9.1783V11.4837H9.51346V11.8159L10.8468 11.8211Z" fill="#EAEAEA"/>
<path id="Vector_67" d="M9.51351 10.4863H9.17761V11.4837H9.51351V10.4863Z" fill="#D1D1D1"/>
<path id="Vector_68" d="M5.85397 8.49219H5.51587V8.82073H5.85397V8.49219Z" fill="#D4D4D4"/>
<path id="Vector_69" d="M11.1782 11.4839L11.179 11.822H12.1719V11.4839H11.1782Z" fill="#EAEAEA"/>
<path id="Vector_70" d="M11.5082 11.1543H11.1775V11.4843H11.5075L11.5082 11.1543Z" fill="#EAEAEA"/>
<path id="Vector_71" d="M3.18292 11.8169H2.85217V12.1476H3.18292V11.8169Z" fill="#969696"/>
<path id="Vector_72" d="M13.8426 9.48877H13.5089V9.81805H13.8426V9.48877Z" fill="white"/>
<path id="Vector_73" d="M14.1749 9.48877H13.8427V9.81805H14.1749V9.48877Z" fill="#EAEAEA"/>
<path id="Vector_74" d="M14.1778 9.81836H13.8427V10.1476H14.1778V9.81836Z" fill="white"/>
<path id="Vector_75" d="M6.51546 9.15625H6.1803V9.49214H6.51546V9.15625ZM7.84801 13.1466H8.18097V11.1547H7.84801V13.1466Z" fill="#D1D1D1"/>
<path id="Vector_76" d="M10.1793 11.1544H9.51343V11.4845H10.1793V11.1544ZM10.5101 10.4863H9.5127V10.8193H10.5101V10.4863Z" fill="#DFDFDF"/>
<path id="Vector_77" d="M10.5101 10.8184H9.5127V11.1557H10.5101V10.8184Z" fill="#EAEAEA"/>
<path id="Vector_78" d="M9.51343 11.4839H9.84639V11.8183L9.5127 11.8168V11.4839H9.51343Z" fill="#D1D1D1"/>
<path id="Vector_79" d="M9.84644 11.8183V11.4839H10.1794V11.819H9.84644V11.8183Z" fill="#EAEAEA"/>
<path id="Vector_80" d="M10.1794 11.4839V11.819L10.5102 11.8205V11.4839H10.1794Z" fill="#DFDFDF"/>
<path id="Vector_81" d="M10.5102 11.1543H10.1794V11.4843H10.5102V11.1543ZM10.5102 11.4836H11.179V11.8217L10.5102 11.8202V11.4836Z" fill="white"/>
<path id="Vector_82" d="M10.8468 11.1543H10.5101V11.4843H10.8468V11.1543Z" fill="#EAEAEA"/>
<path id="Vector_83" d="M11.1783 11.1543H10.8475V11.4843H11.1783V11.1543Z" fill="#E6E6E6"/>
<path id="Vector_84" d="M11.5083 10.8184H10.5101V11.1557H11.5083V10.8184Z" fill="#DFDFDF"/>
<path id="Vector_85" d="M10.5102 10.4862V10.8185H10.8468V9.15369H10.5102V8.82073H10.1794V8.49219H9.51058V8.82441H9.84721V9.49179H9.51131V9.15957H9.17468V9.82107H9.51278V10.4862H10.5102Z" fill="#EAEAEA"/>
<path id="Vector_86" d="M5.17914 8.15869H5.85387V8.49238H5.51577V9.15021H5.17988V9.82273H6.17801V10.152H6.51611V10.4864H4.84766V8.8224H5.17988L5.17914 8.15869Z" fill="#919191"/>
<path id="Vector_87" d="M5.85385 9.82275H5.51355V10.1535H5.85385V9.82275Z" fill="#7F7F7F"/>
<path id="Vector_88" d="M7.17915 10.1543H6.84619V10.4902H7.17915V10.1543ZM7.17915 10.4895H7.51578V10.8195H7.18062L7.17915 10.4902V10.4895Z" fill="#919191"/>
<path id="Vector_89" d="M5.85388 9.82245V9.4917H6.51538V9.82245H7.84941V10.4898H8.18016V11.1543H7.84794V10.8184H7.51645V10.4898H7.17909V10.1539H6.17802V9.82245H5.85388Z" fill="#B6B6B6"/>
<path id="Vector_90" d="M8.18091 10.4902V10.1543H9.51346V10.4873L8.18091 10.4902Z" fill="#DFDFDF"/>
<path id="Vector_91" d="M9.51278 9.82031H9.17468V10.1547H9.51278V9.82031Z" fill="#D1D1D1"/>
<path id="Vector_92" d="M9.1747 10.1542V9.82126H8.84689V8.82093H7.84655V9.15315H7.5158V9.49198H7.17917V8.82093H6.51547V8.49238H6.84622V8.15869H6.17443V8.49238H5.85397V8.82093H5.51587V9.15021H5.85397V9.49198H6.17957V9.15609H6.51473V9.82273H7.84876V10.4901H8.17951V10.1542H9.1747Z" fill="#EAEAEA"/>
<path id="Vector_93" d="M5.85393 9.49198V9.15021H5.1792V9.82273H5.85393V9.49198ZM6.17439 8.15869H5.85393V8.49238H6.17439V8.15869Z" fill="#D4D4D4"/>
<path id="Vector_94" d="M10.1794 8.49252H10.8468V8.15883H11.1746V7.49219H11.5142V8.15883H12.5175V8.49252H13.1716V8.1603H13.5061V7.49366H13.8449V8.49252H14.1698V8.81813H14.5093V9.48918H10.8468V9.15402H10.5102V8.82107H10.1794V8.49252Z" fill="#E6E6E6"/>
<path id="Vector_95" d="M11.1746 9.48969V9.15674H12.1786V9.49263L11.1746 9.48896V9.48969Z" fill="#DFDFDF"/>
<path id="Vector_96" d="M12.1786 9.49263V9.15674H12.8533V9.48896L12.1786 9.49263Z" fill="#EAEAEA"/>
<path id="Vector_97" d="M14.1749 9.15674H13.8383V9.48896H14.1749V9.15674Z" fill="#DFDFDF"/>
<path id="Vector_98" d="M13.8382 9.15694H13.5089V8.82031H14.5085V9.48916H14.1748V9.15694H13.8382Z" fill="#EAEAEA"/>
<path id="Vector_99" d="M12.172 11.1543H11.5083V11.4843H12.172V11.1543Z" fill="#DFDFDF"/>
<path id="Vector_100" d="M11.5083 9.48877H10.8468V10.1466H11.5083V9.48877ZM11.5083 10.4862H10.8468V10.8191H11.5083V10.4862Z" fill="#E6E6E6"/>
<path id="Vector_101" d="M11.5083 10.4865V10.8188H11.8405V10.147H10.8468V10.4865H11.5083Z" fill="white"/>
<path id="Vector_102" d="M12.8482 11.155V11.4835H12.172V10.8184H12.5101V11.155H12.8482Z" fill="#EAEAEA"/>
<path id="Vector_103" d="M11.5083 11.1552H12.172V10.8185H12.5101V10.4863H11.8405V10.8185H11.5083V11.1552Z" fill="#E6E6E6"/>
<path id="Vector_104" d="M11.8405 9.48877H11.5083V9.81805H11.8405V9.48877Z" fill="#DFDFDF"/>
<path id="Vector_105" d="M11.8405 9.81836H11.5083V10.1476H11.8405V9.81836Z" fill="#EAEAEA"/>
<path id="Vector_106" d="M12.1786 9.48877H11.8405V9.81805H12.1786V9.48877Z" fill="#E6E6E6"/>
<path id="Vector_107" d="M12.1786 10.147H11.8405V10.4873H12.1786V10.147Z" fill="#EAEAEA"/>
<path id="Vector_108" d="M12.51 10.4862V9.81731H12.8481V9.48877H12.1786V9.81731H11.8405V10.1466H12.1786V10.4862H12.51Z" fill="#DFDFDF"/>
<path id="Vector_109" d="M13.1796 9.48877H12.8489V9.81805H13.1796V9.48877Z" fill="#E6E6E6"/>
<path id="Vector_110" d="M12.8482 9.81836H12.5101V10.1476H12.8482V9.81836Z" fill="#EAEAEA"/>
<path id="Vector_111" d="M13.1797 10.147H12.5109V10.4873H13.1797V10.147Z" fill="#E6E6E6"/>
<path id="Vector_112" d="M15.1745 10.8184V11.1513H14.5042V11.8165H13.5097V11.4836H12.8482V11.155H12.5101V10.4862H12.8446V10.8184H13.509V10.4862H13.1797V10.1466H12.849V9.81805H13.1797V9.48877H13.509V9.81731H13.8427V10.1466H14.1778V10.4862H14.5042V10.8184H15.1745Z" fill="#DFDFDF"/>
<path id="Vector_113" d="M13.1796 10.4863H12.8445V10.8193H13.1796V10.4863Z" fill="#EAEAEA"/>
<path id="Vector_114" d="M13.509 10.4863H13.179V10.8193H13.5097L13.509 10.4863Z" fill="white"/>
<path id="Vector_115" d="M13.509 10.8184H13.179V11.1513H13.5097L13.509 10.8184Z" fill="#E6E6E6"/>
<path id="Vector_116" d="M13.5097 11.4839H13.179V11.8176H13.5097V11.4839Z" fill="#EAEAEA"/>
<path id="Vector_117" d="M14.1763 11.1553H13.8427V11.4846H14.1756L14.1763 11.1553Z" fill="white"/>
<path id="Vector_118" d="M14.5092 9.48877H14.1748V10.1466H14.5092V9.48877Z" fill="#DFDFDF"/>
<path id="Vector_119" d="M14.1748 10.147H14.5092V10.4873H14.1785L14.1748 10.147ZM14.8429 10.4865L14.5092 10.4873V10.8195H14.8429V10.4865Z" fill="white"/>
<path id="Vector_120" d="M14.843 10.147H14.5093V10.4873H14.843V10.147Z" fill="#DFDFDF"/>
<path id="Vector_121" d="M13.8456 7.49365H14.1749V8.15809H14.5093V8.49031H14.8408V8.82106H15.1745V8.49031H15.8433V9.15696H14.5093V8.82033H14.1697V8.49252H13.8448L13.8456 7.49365Z" fill="#A6A6A6"/>
<path id="Vector_122" d="M15.8433 8.82324H15.5096V9.15767H15.8433V8.82324Z" fill="#909090"/>
<path id="Vector_123" d="M14.5093 9.15674H15.5089V10.4871H15.1745V10.8186H14.843V10.1468H14.5093V9.15674Z" fill="#E6E6E6"/>
<path id="Vector_124" d="M15.5089 10.4863H15.1744V10.8193H15.5096L15.5089 10.4863Z" fill="white"/>
<path id="Vector_125" d="M15.5089 10.8184H15.1744V11.1557H15.5096L15.5089 10.8184Z" fill="#EAEAEA"/>
<path id="Vector_126" d="M15.8433 8.49003H15.1744V8.82078H14.8407V8.49003H14.5085V8.15707H14.1748V7.49337H13.506V7.15968C13.506 7.15968 14.8437 7.1538 14.8437 7.15968V7.49263H15.1752V7.15674H15.8433V7.49263H16.1733V7.82559H16.5085V8.49223H16.1733V8.82151H15.8425V8.48929L15.8433 8.49003Z" fill="#909090"/>
<path id="Vector_127" d="M15.8433 7.15771H15.1752V7.49434H15.8433V7.15771ZM16.1726 7.49361H15.8433V7.82583H16.1726V7.49361Z" fill="#868686"/>
<path id="Vector_128" d="M14.8437 7.49325V6.82146H15.1752V6.49365H15.8433V6.82146H16.5085V7.8262H16.1726V7.49325H15.8433V7.15735H15.1752V7.49325H14.8437ZM13.8456 5.17285H13.506V6.16363H13.8448L13.8456 5.17285Z" fill="#E6E6E6"/>
<path id="Vector_129" d="M13.506 4.50146H13.1775V5.17325H13.506V4.50146Z" fill="#D1D1D1"/>
<path id="Vector_130" d="M13.1775 4.83398H11.5112V5.17282H13.1775V4.83398Z" fill="white"/>
<path id="Vector_131" d="M12.1756 5.17306V4.83496H11.8449V4.50127H11.1724V4.17052H10.8416V3.83756H10.5116V3.49946H10.8431V3.16504H11.8449V3.83389H12.5049V4.16978H12.8401V5.17232L12.1756 5.17306Z" fill="#868686"/>
<path id="Vector_132" d="M16.5085 4.83559V5.49856H16.1682V5.17295H15.1759V4.83485H14.843V5.17295H13.8456V4.83485H14.1778V4.50631H14.513V4.17041H15.5096V4.50116H15.8433V4.83559H16.5085Z" fill="#9E9E9E"/>
<path id="Vector_133" d="M7.84646 8.82534H7.51571V9.15388H7.84646V8.82534ZM7.51571 8.15869H7.17908V8.49238H7.51571V8.15869Z" fill="#7F7F7F"/>
<path id="Vector_134" d="M8.51388 8.15869H7.51575V8.49238H8.51388V8.15869Z" fill="#EAEAEA"/>
<path id="Vector_135" d="M7.17908 8.49219V9.49179H7.51571V8.82514H7.84646V8.49219H7.17908Z" fill="#8F8F8F"/>
<path id="Vector_136" d="M7.84656 8.82588V8.49219H8.18098V8.82073L7.84656 8.82588Z" fill="#7F7F7F"/>
<path id="Vector_137" d="M6.17432 8.15853H6.84611V8.49222H6.51536V8.82076H7.17906V8.15853H8.51382V7.82263H7.17906V7.16113H6.84537V7.82631H6.17432V8.15853Z" fill="#D4D4D4"/>
<path id="Vector_138" d="M8.51386 8.15869V8.49238H8.18091V8.82093H8.84682V9.82053H9.17463V9.15976H9.84715V8.8246H9.51126V8.15869H8.51386Z" fill="#D4D4D4"/>
<path id="Vector_139" d="M9.84713 9.15967H9.51123V9.49262H9.84713V9.15967Z" fill="#BEBEBE"/>
<path id="Vector_140" d="M8.51392 8.15883V7.49365H9.51352V7.82587H9.84721V8.15883H10.1772V8.49252H9.51131V8.15883H8.51392Z" fill="#E6E6E6"/>
<path id="Vector_141" d="M9.51425 7.49365H8.51392V7.82367H9.51352V7.49365H9.51425Z" fill="#EAEAEA"/>
<path id="Vector_142" d="M8.51388 7.82263V7.49335H9.17538V7.16113H7.51501V7.49335H7.84576V7.82263H8.51314H8.51388Z" fill="#B6B6B6"/>
<path id="Vector_143" d="M7.17908 7.16113V7.82263H7.84646V7.49335H7.51571V7.16113H7.17908Z" fill="#EAEAEA"/>
<path id="Vector_144" d="M9.51425 7.16113H9.17468V7.49409H9.51425V7.16113ZM9.51425 7.49335V7.82631H9.84721V7.49188L9.51425 7.49335Z" fill="white"/>
<path id="Vector_145" d="M9.51416 7.49335H9.84711V8.15853H10.1771V8.49222H10.8467V8.15853H10.5145V7.82263H10.1793V7.49335H9.84711V7.16113H9.51416V7.49335Z" fill="#B6B6B6"/>
<path id="Vector_146" d="M7.51571 7.16097V6.82581H7.17908V6.49506H7.51277V6.16211H7.84646V6.8192H10.1793V7.1573H10.8467V6.83169H12.1719V7.49319H13.1774V7.82247H11.5141V7.49172H11.1745V7.82688H10.8467V7.49319H9.84713V7.16097H7.51571Z" fill="#8F8F8F"/>
<path id="Vector_147" d="M10.1794 7.49365H10.8468V8.15809H10.5146V7.82293H10.1794V7.49365Z" fill="#A6A6A6"/>
<path id="Vector_148" d="M11.1746 7.82716H10.8468V8.15865H11.1746V7.82716ZM11.5142 7.82275H13.506V8.16012H13.1716V8.49234H12.5175V8.15865H11.5142V7.82275Z" fill="#B6B6B6"/>
<path id="Vector_149" d="M13.506 7.49365H13.1775V7.82367H13.506V7.49365Z" fill="#A6A6A6"/>
<path id="Vector_150" d="M13.506 7.16064H13.1775V7.49433H13.506V7.16064Z" fill="#8F8F8F"/>
<path id="Vector_151" d="M13.5059 7.16037V6.49373H12.51V6.17106H12.1763V5.82929H11.1841V6.17106H9.17973V5.82929H8.51235V5.49854H8.1816V5.82267H7.84424V6.81933H10.1793V7.15743H10.8467V6.83183H12.1719V7.49332H13.1774V7.16037H13.5059Z" fill="#868686"/>
<path id="Vector_152" d="M13.506 7.1603V6.49365H13.8448V7.15736L13.506 7.1603Z" fill="#A6A6A6"/>
<path id="Vector_153" d="M13.8456 6.49384V6.16309H14.1771V6.49604H14.5093V6.82679H14.8437V7.16048H13.8456V6.49384Z" fill="white"/>
<path id="Vector_154" d="M15.8425 6.49365V6.15628H16.5084V5.17285H16.8348V5.83288H17.181V6.49365H17.5044V6.83028H17.1751L17.1766 7.49325H16.5077V6.82146H15.8425V6.49365Z" fill="#CACACA"/>
<path id="Vector_155" d="M15.8426 9.15674H15.5089V9.81824H15.8426V9.15674Z" fill="#EAEAEA"/>
<path id="Vector_156" d="M16.1725 8.82324H15.8425V9.15767H16.1733V8.82324H16.1725Z" fill="#EAEAEA"/>
<path id="Vector_157" d="M16.1725 8.82318V8.49316H16.5084V9.49276H16.1725V9.81837H15.8425V9.15687H16.1733V8.82318H16.1725Z" fill="#DFDFDF"/>
<path id="Vector_158" d="M16.5084 7.82691V8.49282H17.1773V8.15987H16.8355V7.82471L16.5084 7.82691Z" fill="#D4D4D4"/>
<path id="Vector_159" d="M17.1774 8.15937V7.82715H17.8403V8.49306H17.1774V8.1601V8.15937Z" fill="#CACACA"/>
<path id="Vector_160" d="M17.1773 7.82471H16.8356V8.1606H17.1773V7.82471Z" fill="#E6E6E6"/>
<path id="Vector_161" d="M16.5084 7.49365V7.82734H17.1773V7.49365H16.5084Z" fill="#959595"/>
<path id="Vector_162" d="M16.837 9.81812V10.1467H16.5085V10.4862H16.1726V11.1551H15.8426V11.4836H15.1737V11.1551H15.5089V9.81738H15.8426V10.1467H16.1733V9.81812H16.837Z" fill="#DFDFDF"/>
<path id="Vector_163" d="M16.1725 9.81836H15.8425V10.1476H16.1733V9.81836H16.1725Z" fill="#EAEAEA"/>
<path id="Vector_164" d="M17.1773 9.4917H16.837V9.81804H17.1766L17.1773 9.4917Z" fill="#DFDFDF"/>
<path id="Vector_165" d="M17.1773 9.15674H16.837V9.4919H17.1766L17.1773 9.15674Z" fill="#959595"/>
<path id="Vector_166" d="M17.5088 8.82324V11.1554H17.1773V10.8188H16.5084V10.4865H16.8377V10.147H17.1773V8.82324H17.5088Z" fill="#CACACA"/>
<path id="Vector_167" d="M17.1773 9.81836H16.837V10.1476H17.1766L17.1773 9.81836Z" fill="#EAEAEA"/>
<path id="Vector_168" d="M16.837 10.147H16.5085V10.4873H16.8378L16.837 10.147ZM16.5085 10.4873L16.1726 10.4865V10.8195H16.5085V10.4873Z" fill="white"/>
<path id="Vector_169" d="M17.1774 10.8184V11.155H16.8371V11.4835H16.1719V11.155H16.5078V10.8184H17.1774Z" fill="#DFDFDF"/>
<path id="Vector_170" d="M16.5085 10.8184H16.1726V11.1557H16.5085V10.8184Z" fill="#EAEAEA"/>
<path id="Vector_171" d="M16.1725 11.1553H15.8425V11.4846H16.1733V11.1553H16.1725Z" fill="white"/>
<path id="Vector_172" d="M17.1773 11.1553V12.1431H15.8425V11.4838H16.8377V11.1553H17.1773Z" fill="#DFDFDF"/>
<path id="Vector_173" d="M17.1773 11.1553V11.8168H16.1726V11.4838H16.8378V11.1553H17.1773ZM16.837 12.1431V13.1464H16.51V13.8116H16.1726V14.1445H15.8418V14.809H15.5082V15.1419H15.1715V15.4741H14.5049V15.1404H14.8349V13.8086H15.1752V13.4793H15.8418V13.1412H15.5118V12.8083H15.8418V12.4819H16.1726V12.1431H16.837Z" fill="#CACACA"/>
<path id="Vector_174" d="M15.8418 12.481H15.511V12.808H15.8418V12.481ZM15.1759 13.4791H14.8348V13.8091H15.1751V13.4791H15.1759Z" fill="#EAEAEA"/>
<path id="Vector_175" d="M17.1736 12.8081H16.8377V13.1469H17.1736V12.8081ZM16.837 13.1462H16.5099V13.8114H16.8377V13.1469L16.837 13.1462Z" fill="#7F7F7F"/>
<path id="Vector_176" d="M16.5099 13.8115V14.1445H16.1726V13.8115H16.5107H16.5099ZM16.1726 14.1445H15.8418V14.8089H16.1726V14.1445ZM15.5089 15.1419H15.1715V15.4748H15.5089V15.1419ZM15.8418 14.8089V15.1426L15.5089 15.1419V14.8097L15.8418 14.8089Z" fill="#7F7F7F"/>
<path id="Vector_177" d="M11.839 14.4751V14.8073H11.5105V14.4766L11.839 14.4751Z" fill="#D1D1D1"/>
<path id="Vector_178" d="M14.5048 15.1403V15.474H13.1789V14.8066H12.8481V14.4766C12.8481 14.4766 14.5122 14.484 14.5056 14.4766C14.4982 14.47 14.5048 15.1403 14.5048 15.1403Z" fill="#DFDFDF"/>
<path id="Vector_179" d="M14.1734 14.8096H13.8419V15.8092H14.1727L14.1734 14.8096Z" fill="#EAEAEA"/>
<path id="Vector_180" d="M12.8482 14.8066H12.5101V15.1425H12.8482V14.8066ZM12.8482 15.474H12.5101V15.8092H12.8482V15.474ZM13.1724 15.8092H12.8482L12.849 16.4736H13.1724V15.8092Z" fill="#DFDFDF"/>
<path id="Vector_181" d="M13.8419 15.8091H13.5038V16.142H13.8419V15.8091Z" fill="#EAEAEA"/>
<path id="Vector_182" d="M14.1771 6.16363V6.49585H14.5093V6.8266H15.1752V6.49365H15.8433V6.15628H16.5085V5.49846H15.8433V5.83435H15.5096V6.16363H14.5049V5.82921H14.1771V5.17285H13.8448V6.16363H14.1771Z" fill="#8F8F8F"/>
<path id="Vector_183" d="M14.177 5.17306H14.8437V4.83496H15.1766V5.17306H16.1682V5.49867H15.8433V5.83456H15.5096V6.16384H14.5048V5.82942H14.177V5.17306ZM13.8456 6.16384H13.506V6.49459H13.8448L13.8456 6.16384Z" fill="#868686"/>
<path id="Vector_184" d="M11.5112 5.82929V5.49854H12.516V5.82929H12.8497V6.16371H13.506V6.49373H12.5101V6.17106H12.1764V5.82929H11.5112Z" fill="#8F8F8F"/>
<path id="Vector_185" d="M11.5112 5.49848V5.16553L13.506 5.17288V6.16366H12.8497V5.82923H12.516V5.49848H11.5112Z" fill="#959595"/>
<path id="Vector_186" d="M13.506 5.49951H13.1775V5.83026H13.506V5.49951Z" fill="#868686"/>
<path id="Vector_187" d="M14.177 4.83545V5.17355H14.507V4.83398L14.177 4.83545Z" fill="#D4D4D4"/>
<path id="Vector_188" d="M16.174 4.50146H15.8433V4.83589H16.174V4.50146Z" fill="#CACACA"/>
<path id="Vector_189" d="M14.177 4.17041V4.83559H13.8448V5.17295H13.506V4.17041H14.177Z" fill="#EAEAEA"/>
<path id="Vector_190" d="M14.5122 4.17066H14.177V4.50655H14.5122V4.17066Z" fill="#D1D1D1"/>
<path id="Vector_191" d="M7.17917 6.82845V7.16141H6.84548V7.82732H6.17442V7.49363H6.50811V7.16141H5.84882V6.49624H5.51807V5.82959H6.18251V6.1721H6.50885V6.49624H6.85062V6.82845H7.17917Z" fill="#EAEAEA"/>
<path id="Vector_192" d="M7.51571 6.82764H7.17908V7.16206H7.51571V6.82764Z" fill="#B6B6B6"/>
<path id="Vector_193" d="M6.50801 7.16113H6.17432V7.49409H6.50801V7.16113Z" fill="#919191"/>
<path id="Vector_194" d="M4.85061 6.49609V6.82831H4.51692L4.52059 7.16127H4.18396V6.82905H4.51692V6.49683L4.85061 6.49609Z" fill="#959595"/>
<path id="Vector_195" d="M6.17434 7.16113H5.85388V7.49409H6.17434V7.16113Z" fill="#7F7F7F"/>
<path id="Vector_196" d="M6.17439 7.49349V8.15866H5.85393V7.82791H5.51583V7.49716H4.85433V7.82497H4.52064L4.51697 6.82831H5.18435V6.49609H5.8532V7.49349H6.17439Z" fill="#919191"/>
<path id="Vector_197" d="M5.51656 7.16113H5.17993V7.49776H5.51656V7.16113Z" fill="#D1D1D1"/>
<path id="Vector_198" d="M4.52059 8.15845H4.18396V8.49581H4.52059V8.15771V8.15845Z" fill="#C9C9C9"/>
<path id="Vector_199" d="M11.5112 4.83398H11.1731V5.1662H11.5112V4.83398Z" fill="#D4D4D4"/>
<path id="Vector_200" d="M11.5113 5.16553H10.8439V5.49922H11.512L11.5113 5.16553Z" fill="#EAEAEA"/>
<path id="Vector_201" d="M1.85038 7.82704V8.49222H2.17378V9.1596H1.85185V9.48888H1.52551V7.16113H2.51776V7.82704H1.85038ZM3.18294 9.48888H1.85185L1.85259 10.1541H3.18294V9.48888Z" fill="#D4D4D4"/>
<path id="Vector_202" d="M3.1829 9.15694H2.8573V9.4899H3.18217L3.1829 9.15694ZM4.18397 7.49805V8.49544H3.84955V8.81884H3.51512V9.15253L3.1829 9.15694V8.49103H3.51586V7.82733H3.84808V7.49805H4.18397Z" fill="#919191"/>
<path id="Vector_203" d="M3.51594 7.82715H3.18298V8.15863H3.51594V7.82715Z" fill="#7F7F7F"/>
<path id="Vector_204" d="M2.51846 8.49526V8.82087H2.85803V9.48898H1.85181V9.1597H2.17301V8.49232H1.84961V7.82715H2.51846V8.1579H2.85803V8.49526H2.51846Z" fill="#EAEAEA"/>
<path id="Vector_205" d="M4.18394 6.82812V7.49697H3.84804V7.82699H3.18287V8.15774H3.51583V8.4907H3.18287V9.15661H2.85727V8.82071H2.51917V8.4951H2.85873V8.15848H2.51917V7.82699H2.85873V7.16108H3.18361V6.82886H4.18468L4.18394 6.82812Z" fill="#D4D4D4"/>
<path id="Vector_206" d="M1.18672 6.16309H0.853027V7.16122H1.18672V6.16309Z" fill="white"/>
<path id="Vector_207" d="M1.85038 6.49609H1.52551V7.16127H1.84965L1.85038 6.49609Z" fill="#959595"/>
<path id="Vector_208" d="M2.51846 5.16406V6.16366H2.18403V7.16106H1.84961V5.82924H2.18256V5.1648L2.51846 5.16406ZM4.18397 6.8281H3.84734V6.17101H4.85061V6.49588H4.51692V6.8281H4.18397Z" fill="#D4D4D4"/>
<path id="Vector_209" d="M3.84735 6.49609H3.5166V6.82831H3.84735V6.49609Z" fill="#EAEAEA"/>
<path id="Vector_210" d="M8.17871 3.50533V3.83608H7.84796V4.16977H7.17911V4.50052H6.84836V4.83274H5.5158V5.1679H5.18358V5.49865H4.84769V5.8294H4.18472V6.17264H3.84809V6.49678H3.51734V6.829H2.8551V6.16382H3.19026V5.8294H3.5166V5.49791H3.8547V5.16716H4.18251V4.8298H5.17844V4.49464H5.51801V4.17124H6.18171V3.8324H6.51761V3.50092H6.84615V3.16943H7.51721V3.50459L8.17871 3.50533Z" fill="#909090"/>
<path id="Vector_211" d="M3.18294 6.829V7.16122H2.85734V7.82713H2.51924V7.16122H2.18481V6.16309H2.85513V6.82826H3.18368L3.18294 6.829Z" fill="#EAEAEA"/>
<path id="Vector_212" d="M4.51763 4.50146V4.83074H4.18173V5.1659H3.85392V5.49665H3.51583V5.82961H3.18949V6.16403H2.51917V5.82961H2.85506V5.49886H3.18434V4.8425H3.51803V4.5022L4.51763 4.50146Z" fill="#9E9E9E"/>
<path id="Vector_213" d="M6.51766 3.1701V3.83307H6.18103V4.17117H5.51806V4.4953H5.17849V4.83046H4.51846V4.50118H3.84961V4.16529H4.1833V3.83601H4.51846V3.50379H5.17996V3.1701H5.51732V2.84229H6.1825V3.1701H6.51766Z" fill="#868686"/>
<path id="Vector_214" d="M5.51653 2.84229V3.1701H5.17916V3.50379H4.51766V3.83601H4.1825V4.16529H3.84955V4.50118H3.5188V3.83601H3.84955V3.50379H4.17809V3.1701H4.5184V2.84229H5.51653Z" fill="#A6A6A6"/>
<path id="Vector_215" d="M5.51655 2.51025H5.18286V2.84321H5.51655V2.51025Z" fill="#909090"/>
<path id="Vector_216" d="M6.85127 3.1701H6.51685V3.50232H6.85127V3.1701ZM7.18423 2.84229H6.85127V3.1701H7.18423V2.84229Z" fill="#9E9E9E"/>
<path id="Vector_217" d="M7.51728 2.84229V3.17157L7.18433 3.1701V2.84229H7.51655H7.51728Z" fill="#868686"/>
<path id="Vector_218" d="M7.84802 2.50947V3.17023H7.51727V2.84242H6.85136V3.17023H6.18178V2.84242H5.5166V2.5102H5.85029V2.17725H7.51433V2.50947H7.84802Z" fill="#B6B6B6"/>
<path id="Vector_219" d="M7.51721 3.1701V3.50526H8.17871V2.84229H7.84796V3.1701H7.51721Z" fill="#868686"/>
<path id="Vector_220" d="M5.1843 6.49587V5.82923H5.51725V5.16699H5.18282V5.49774H4.84693V5.82849H4.18396V6.17174H4.85061V6.49587H5.1843Z" fill="#EAEAEA"/>
<path id="Vector_221" d="M5.18428 6.49609H4.85059V6.82831H5.18428V6.49609Z" fill="#7F7F7F"/>
<path id="Vector_222" d="M5.51728 5.82959H5.18433V6.49624H5.51728V5.82959Z" fill="#D1D1D1"/>
<path id="Vector_223" d="M5.51514 4.83295L5.51808 5.82961H6.18252V6.17212H6.50886V6.49626H6.85063V6.82847H7.17991V5.49886H7.84509V5.16737H7.51728V4.83295H7.17918V4.50146H6.8499V4.83295H5.51514Z" fill="#D4D4D4"/>
<path id="Vector_224" d="M5.84875 5.16792H6.18244V4.8335H5.84875V5.16792Z" fill="white"/>
<path id="Vector_225" d="M7.17915 6.4958V6.16211H6.84619V6.49653L7.17915 6.4958Z" fill="#E6E6E6"/>
<path id="Vector_226" d="M7.51277 6.16211H7.17908V6.4958H7.51277V6.16211Z" fill="#B6B6B6"/>
<path id="Vector_227" d="M7.51277 5.49854H7.17908V5.82929H7.51277V5.49854Z" fill="#E6E6E6"/>
<path id="Vector_228" d="M7.51277 5.82959H7.17908V6.16328H7.51277V5.82959Z" fill="#B2B2B2"/>
<path id="Vector_229" d="M7.51282 6.16218V5.49848H7.8443V5.16699H8.84537V5.49848H8.18167V5.82261H7.8443V6.16218H7.51282Z" fill="#A6A6A6"/>
<path id="Vector_230" d="M7.51718 4.16992H7.17908V4.83289H7.51718V4.16992ZM9.51417 4.50141V4.83289H9.18342V5.16805H7.51718V4.83289L8.51604 4.83363V4.50214H9.51564L9.51417 4.50141Z" fill="#EAEAEA"/>
<path id="Vector_231" d="M8.51245 5.49848H9.51426V5.16699H9.84721V5.82849H10.5117V6.171H9.17983V5.82923H8.51245V5.49848Z" fill="#8F8F8F"/>
<path id="Vector_232" d="M8.84534 5.49843V5.16694H9.18344V4.83252H10.1794V5.49843H9.84714V5.16694H9.51419V5.49843H8.84534Z" fill="#B6B6B6"/>
<path id="Vector_233" d="M11.1834 6.17106V5.82929H11.5119V5.49854H10.8475V5.83517H10.5116V5.49854H9.84717V5.82929L10.5116 5.83517V6.17106H11.1834Z" fill="#A6A6A6"/>
<path id="Vector_234" d="M10.8439 5.16553H10.1794V5.49922H10.8446V5.16553H10.8439Z" fill="#E6E6E6"/>
<path id="Vector_235" d="M10.8468 5.49854H10.5116V5.83517H10.8468V5.49854Z" fill="#EAEAEA"/>
<path id="Vector_236" d="M9.17611 4.16992L9.17317 4.50067H8.51534V4.83289H7.51648V4.16992H9.17611Z" fill="#D4D4D4"/>
<path id="Vector_237" d="M9.17615 3.83545H8.51538V4.16987H9.17615V3.83545ZM9.17615 4.16987H9.51425V4.50209H9.17321L9.17615 4.16987ZM9.8472 4.50136L9.51425 4.50209V4.83358H9.8472V4.50136Z" fill="#D1D1D1"/>
<path id="Vector_238" d="M10.1772 4.50146H9.84644V4.83368H10.1772V4.50146Z" fill="#EAEAEA"/>
<path id="Vector_239" d="M10.1772 4.50146V5.1659H10.8446V4.83295H10.5117V4.50146H10.1772Z" fill="#D4D4D4"/>
<path id="Vector_240" d="M10.5116 4.50146H11.1731V5.1659H10.8446V4.83295H10.5116V4.50146Z" fill="#E6E6E6"/>
<path id="Vector_241" d="M10.5116 3.83838H10.8416V4.1706H11.1724V4.50135H11.8449V4.8343H11.1724V4.50135H10.8416V4.1706H10.5109L10.5116 3.83838Z" fill="#909090"/>
<path id="Vector_242" d="M10.8423 4.17041H10.5109V4.50116H10.8416L10.8423 4.17041Z" fill="#D4D4D4"/>
<path id="Vector_243" d="M7.84797 2.17697H7.51428V2.50992H7.84724V2.17697H7.84797ZM13.1789 2.50919V3.17069H12.8401V2.83994H12.1757V2.50919H11.5119V2.83994H11.1797V3.16554H10.8431V3.49997H10.5109V4.50104H10.1772V4.16808H9.84644V4.5003H9.51422V4.16882H9.17612V3.83439H8.51535V4.16882H7.84797V3.83439H8.17872V3.5007H8.50947V3.17289H8.17872V2.84214H7.84797V2.50845H8.51241V2.17623H8.84904V1.83887H9.17685V2.17623H9.51642V2.50845H9.17685V2.8392H8.8461V3.49997H9.51348V3.16922H9.84717V2.83847H10.5131V2.50478H10.8438V2.17403H11.5127V1.83887H12.1786V2.17182H12.5108V2.50845H13.1797L13.1789 2.50919Z" fill="#EAEAEA"/>
<path id="Vector_244" d="M10.1772 4.16828H9.84643V4.50124H10.1772V4.16828ZM8.50946 3.17383H8.17871V3.50237H8.50946V3.17383Z" fill="#D1D1D1"/>
<path id="Vector_245" d="M13.1774 4.83427V4.50132H13.5059V3.83761H13.1789V3.49951H11.8448V3.83467H12.5049V4.17057H12.84V4.83427H13.1774Z" fill="#909090"/>
<path id="Vector_246" d="M11.8457 2.50928H11.512V2.84003H11.8457V2.50928Z" fill="#C5C5C5"/>
<path id="Vector_247" d="M12.1756 2.50928H11.8448V2.84003H12.1756V2.50928Z" fill="#CDCDCD"/>
<path id="Vector_248" d="M12.5108 2.83936V3.17084L11.1804 3.16643V2.83936H12.5108Z" fill="#B6B6B6"/>
<path id="Vector_249" d="M11.8448 3.1657V3.49939H12.84V2.83936H12.5108V3.17011L11.8448 3.1657Z" fill="#9E9E9E"/>
<path id="Vector_250" d="M13.1789 3.1709H12.8401V3.50018H13.1789V3.1709Z" fill="#C5C5C5"/>
<path id="Vector_251" d="M14.1771 3.83467V4.17057H13.506V3.83761H13.179V3.49951H13.8419V3.83467H14.1771Z" fill="#D1D1D1"/>
<path id="Vector_252" d="M9.84712 2.84033V3.17108H9.51343L9.51196 2.84033H9.84712Z" fill="#D4D4D4"/>
<path id="Vector_253" d="M12.513 1.17768V1.51505H11.5119V2.17434H10.8438V2.50509H10.5131V2.84025H9.84717L9.85011 2.5095H10.1794V2.17728H10.5131V1.50623H9.8457V1.17768H9.17905V1.51064H6.85425V1.17695H7.52089V0.844727H11.5127V1.17768H12.513ZM9.51348 3.17027H9.17538V3.50543H9.51348V3.17027Z" fill="#D4D4D4"/>
<path id="Vector_254" d="M10.5131 1.50604V2.17709H10.1794V2.50931H9.85014V2.84006H9.51424V3.17081H9.17614V3.50524H8.84686V2.84006H9.17761V2.50931H9.51571V2.17709H9.17761V1.83973H8.51611V1.51045H9.17908V1.17676H9.84573V1.5053L10.5131 1.50604Z" fill="#DFDFDF"/>
<path id="Vector_255" d="M9.84355 1.83984H9.51648V2.17794H9.84355V1.83984Z" fill="#EAEAEA"/>
<path id="Vector_256" d="M14.8525 2.83961V3.17109H13.1789C13.1672 3.17109 13.1789 2.50959 13.1789 2.50959H12.5101V2.17296H12.1793V1.84001H11.512V1.51514H12.513V1.84001H12.8401V2.17737H13.8449V2.83961H14.8525Z" fill="#DFDFDF"/>
<path id="Vector_257" d="M15.5089 4.16903V4.1705H14.1764V3.8346H13.8412V3.49944H13.1782V3.1709H14.8526V3.49944H15.1737V4.16903H15.5089Z" fill="#EAEAEA"/>
<path id="Vector_258" d="M18.174 7.49057V10.8194H17.8403V11.816H17.5132V12.482H17.1737V12.8083H16.8378V12.1431H17.1773V11.1553H17.5081V8.49311H17.8403V7.8272H17.1773L17.1751 6.83054H17.5037V6.49391H17.181V5.83315H16.8356V5.17312H16.5085V4.83502H16.1741V4.50133H15.5089V4.16837H15.1737V3.49952H14.8525V2.17432H15.1803V2.50507H15.5082V2.83802L15.8404 2.83876V3.17098H16.1726V3.83027H16.5136V4.16837H16.8429L16.8444 4.8284H17.1737V5.4877H17.5132V6.1661H17.8344V7.49057H18.174Z" fill="#E6E6E6"/>
<path id="Vector_259" d="M16.5085 8.49316V9.49276H16.1726V9.81837H16.8378V9.15687H17.1774V8.82318H17.5081V8.49316H16.5085Z" fill="#EAEAEA"/>
<path id="Vector_260" d="M12.5131 1.51514H13.179V1.84001H13.5009V2.17737H12.8394V1.84001H12.5131V1.51514ZM13.8456 2.17737H14.1712V2.50959H14.8526V2.84034H13.8456V2.17737Z" fill="#D4D4D4"/>
<path id="Vector_261" d="M14.8525 2.17424V2.5094H14.1712V2.17718H13.5008V1.83982H13.1789V1.51495H12.513V1.17685H11.5134V0.844626H10.1794V0.506526H8.51533V0.844626H7.52088V1.17758H6.85423V1.51054H6.52348V1.83982H5.51653V2.17718H4.86018V2.5094H4.18765V2.84236H3.84955V3.17017H3.51733V3.50092H3.1807V4.16462H2.5192V4.83053H2.18478V5.8294H1.85035V6.49604H1.52622V7.16122H1.18665V5.49865H1.51887V4.83421H1.85109V4.1683H2.18625V3.83755H2.517V3.1687H2.85142V2.83795H3.18291V2.50352H3.5166V2.17277H4.18545V1.84129H4.51693V1.50466H5.18358V1.17685H5.84875V0.843156H6.5154V0.510936H7.515V0.177246H11.1775V0.510201H12.1771V0.842421H13.1767V1.17538H13.5097V1.5076H14.1756L14.1741 1.83982H14.5085V2.17277H14.8518L14.8525 2.17424Z" fill="#E6E6E6"/>
<path id="Vector_262" d="M7.51724 1.5105V1.83978H6.85427V2.17715H5.85026V2.5101H5.18288V2.84232H4.51844V3.17013H4.17813V3.50382H3.84959V3.83604H3.51884V4.84152H3.18441V5.49861H2.85513V5.82936H2.51924V5.16419H2.18481V4.82976H2.51924V4.16385H3.18074V3.50088H3.51884V3.1694H3.84959V2.84159H4.18769V2.50863H4.86095V2.17641H5.5173V1.83905H6.52425V1.50977H7.51724V1.5105Z" fill="#EAEAEA"/>
</g>
</g>
</g>
</g>
<defs>
<clipPath id="clip0_44_2280">
<rect width="99.96" height="17.64" fill="white" transform="translate(0.52002 0.169922)"/>
</clipPath>
</defs>
</svg>
